<svg xmlns="https://www.w3.org/2000/svg" xmlns:xlink="https://www.w3.org/1999/xlink" viewBox="0 0 976.34 223.31"><defs><style>.cls-1{fill:url(#linear-gradient);}.cls-2{fill:url(#linear-gradient-2);}</style><linearGradient id="linear-gradient" x1="139.68" y1="63.11" x2="28.01" y2="256.54" gradientUnits="userSpaceOnUse"><stop offset="0" stop-color="#0967fe"/><stop offset="1" stop-color="#2a3ef3"/></linearGradient><linearGradient id="linear-gradient-2" x1="1853.32" y1="1459.8" x2="1853.25" y2="1460.75" gradientTransform="translate(-2377193.41 -247062.74) scale(1283.02 169.27)" gradientUnits="userSpaceOnUse"><stop offset="0" stop-color="#190e3e"/><stop offset="1" stop-color="#0f093c"/></linearGradient></defs><title>Asset 1</title><g id="Layer_2" data-name="Layer 2"><g id="Layer_1-2" data-name="Layer 1"><path class="cls-1" d="M111.66,0A111.66,111.66,0,1,0,223.31,111.66,111.66,111.66,0,0,0,111.66,0ZM23.92,111.66a87.59,87.59,0,0,1,36.6-71.3V183A87.59,87.59,0,0,1,23.92,111.66Zm87.74,87.73a87.45,87.45,0,0,1-27.22-4.31V28.23a87.74,87.74,0,1,1,27.22,171.16Z"/><path id="Moonlight" class="cls-2" d="M372.67,66.29a1.63,1.63,0,0,1,1.63,1.63V154a1.63,1.63,0,0,1-1.63,1.62h-11.4a1.63,1.63,0,0,1-1.63-1.62v-58c0-.9-.29-1-.66-.15l-26,58.25a2.71,2.71,0,0,1-2.28,1.48h-6.91a2.7,2.7,0,0,1-2.29-1.48L295.48,95.93c-.37-.82-.67-.75-.67.15v58a1.62,1.62,0,0,1-1.62,1.62h-11.4a1.63,1.63,0,0,1-1.63-1.62V67.91a1.63,1.63,0,0,1,1.63-1.63h12.55a2.73,2.73,0,0,1,2.3,1.49l30.05,67.11c.37.82,1,.83,1.33,0l29.92-67.12a2.73,2.73,0,0,1,2.29-1.49ZM451,134.38q8.55-8.94,8.55-23.53T451,87.38q-8.55-8.86-22.06-8.87t-22.06,8.87q-8.55,8.88-8.55,23.47t8.55,23.53q8.55,8.94,22.06,8.94T451,134.38Zm-55.55,9.26q-13.24-12.94-13.25-32.79t13.25-32.78q13.24-12.93,32.47-12.92t32.41,12.92Q473.5,91,473.49,110.87t-13.18,32.78q-13.19,12.93-32.41,12.93T395.43,143.64Zm152-9.26q8.55-8.94,8.55-23.53t-8.55-23.47q-8.55-8.86-22.06-8.87t-22,8.87q-8.55,8.87-8.55,23.46t8.55,23.54q8.55,8.93,22.06,8.93T547.46,134.38Zm-55.56,9.26q-13.23-12.94-13.23-32.79T491.9,78.07q13.25-12.93,32.47-12.92t32.42,12.92Q570,91,570,110.87t-13.18,32.78q-13.18,12.93-32.4,12.93T491.9,143.64ZM636.08,67.79a1.62,1.62,0,0,1,1.62-1.63h11.4a1.63,1.63,0,0,1,1.63,1.63V154a1.63,1.63,0,0,1-1.63,1.62H637.7a3.36,3.36,0,0,1-2.52-1.35l-42.32-64c-.5-.75-.9-.63-.9.28V154a1.63,1.63,0,0,1-1.63,1.62H578.94a1.63,1.63,0,0,1-1.63-1.62V67.79a1.63,1.63,0,0,1,1.63-1.63h11.39a3.35,3.35,0,0,1,2.53,1.36l42.33,63.89c.49.76.9.64.9-.27Zm24.72.12a1.63,1.63,0,0,1,1.63-1.63h11.39a1.63,1.63,0,0,1,1.63,1.63v74.93a1.63,1.63,0,0,0,1.63,1.63h27a1.63,1.63,0,0,1,1.63,1.63V154a1.63,1.63,0,0,1-1.63,1.62H662.42A1.63,1.63,0,0,1,660.8,154Zm53.85,87.75A1.63,1.63,0,0,1,713,154V67.91a1.63,1.63,0,0,1,1.63-1.63H726a1.63,1.63,0,0,1,1.63,1.63V154a1.63,1.63,0,0,1-1.63,1.62Zm33.64-12.09Q735,130.72,735.05,110.84t13.23-32.77a45,45,0,0,1,32.41-13.34c11.44,0,18.78,3.62,26.18,8.32,9.12,5.79,16.64,19,15.35,19h-18c-1.23,0-.75-2.08-6-6.39s-11.09-7.11-17.61-7.11q-13.5,0-22.06,8.87t-8.55,23.47q0,14.6,8.55,23.46a28.28,28.28,0,0,0,21.31,8.84c8.49,0,15.74-3.35,21.82-8.87s8.94-16.2,7.5-16.2H777.31a1.63,1.63,0,0,1-1.63-1.63v-8.19a1.62,1.62,0,0,1,1.63-1.62h46a3.19,3.19,0,0,1,2.47,1.39h0s1.25,1.81,0,10.37c-1.38,9.49-7,19.46-15.25,26.87s-18.45,11.13-30.67,11.13a43.74,43.74,0,0,1-31.58-12.86ZM890.62,67.92a1.63,1.63,0,0,1,1.63-1.63h11.4a1.63,1.63,0,0,1,1.62,1.63V154a1.63,1.63,0,0,1-1.62,1.62h-11.4a1.63,1.63,0,0,1-1.63-1.62V117.81a1.63,1.63,0,0,0-1.63-1.63h-38.8a1.63,1.63,0,0,0-1.63,1.63V154a1.63,1.63,0,0,1-1.63,1.62H835.54a1.63,1.63,0,0,1-1.63-1.62V67.91a1.63,1.63,0,0,1,1.63-1.63h11.39a1.63,1.63,0,0,1,1.63,1.63v35.32a1.63,1.63,0,0,0,1.63,1.62H889a1.63,1.63,0,0,0,1.63-1.62Zm25,9.81A1.63,1.63,0,0,1,914,76.1V67.91a1.63,1.63,0,0,1,1.63-1.63h59.13a1.63,1.63,0,0,1,1.63,1.63V76.1a1.63,1.63,0,0,1-1.63,1.63H954.17a1.63,1.63,0,0,0-1.63,1.63V154a1.62,1.62,0,0,1-1.62,1.62h-11.4a1.63,1.63,0,0,1-1.63-1.62V79.36a1.62,1.62,0,0,0-1.62-1.63H915.58Z"/></g></g></svg>