<svg width="1705" height="134" viewBox="0 0 1705 134" fill="none" xmlns="http://www.w3.org/2000/svg">
<g clip-path="url(#clip0)">
<rect width="1705" height="134" fill="white"/>
<g filter="url(#filter0_dd)">
<path d="M33.9153 7.67419C34.5121 5.50394 36.4855 4 38.7363 4H900.439C903.741 4 906.136 7.14271 905.26 10.3258L873.085 127.326C872.488 129.496 870.515 131 868.264 131H6.56067C3.2594 131 0.864264 127.857 1.73963 124.674L33.9153 7.67419Z" fill="url(#paint0_linear)"/>
</g>
<path d="M138.568 51.144C137.373 55.4747 135.133 58.872 131.848 61.336C128.563 63.7253 124.419 65.2187 119.416 65.816C123 66.1147 125.688 67.16 127.48 68.952C129.272 70.744 130.168 73.096 130.168 76.008C130.168 77.128 129.981 78.5093 129.608 80.152L128.376 85.64C128.227 86.3867 128.152 86.9093 128.152 87.208C128.152 88.1787 128.376 88.9253 128.824 89.448C129.272 89.896 129.907 90.12 130.728 90.12C132.296 90.12 133.416 90.344 134.088 90.792C134.835 91.24 135.096 92.0613 134.872 93.256C134.573 94.9733 133.677 96.6533 132.184 98.296C130.691 99.9387 128.563 101.32 125.8 102.44C123.112 103.485 119.827 104.008 115.944 104.008C111.016 104.008 107.096 102.925 104.184 100.76C101.272 98.52 99.816 95.3467 99.816 91.24C99.816 89.672 100.04 87.992 100.488 86.2L102.28 79.032C102.579 78.0613 102.728 77.0533 102.728 76.008C102.728 74.2907 102.131 73.0587 100.936 72.312C99.816 71.5653 97.9867 71.192 95.448 71.192H91.192L86.04 89.784C85.8907 90.232 85.816 90.792 85.816 91.464C85.816 92.5093 86.0773 93.4053 86.6 94.152C87.1227 94.8987 87.832 95.6827 88.728 96.504C89.4 97.0267 89.9227 97.5493 90.296 98.072C90.6693 98.52 90.856 99.0053 90.856 99.528C90.856 100.797 90.2587 101.693 89.064 102.216C87.8693 102.739 86.1147 103 83.8 103H55.688C53.7467 103 52.2907 102.664 51.32 101.992C50.3493 101.245 50.0133 100.237 50.312 98.968C50.4613 98.296 50.76 97.7733 51.208 97.4C51.5813 96.952 52.1787 96.4667 53 95.944C54.2693 95.1973 55.2773 94.4133 56.024 93.592C56.7707 92.7707 57.368 91.5013 57.816 89.784L71.48 41.512C71.7787 40.5413 71.928 39.608 71.928 38.712C71.928 37.8907 71.7787 37.2187 71.48 36.696C71.256 36.0987 70.92 35.4267 70.472 34.68C69.8 33.7093 69.464 32.9253 69.464 32.328C69.464 32.104 69.5387 31.6933 69.688 31.096C69.9867 30.1253 70.6213 29.4533 71.592 29.08C72.6373 28.632 74.2053 28.408 76.296 28.408H113.816C118.968 28.408 123.448 29.192 127.256 30.76C131.139 32.328 134.088 34.4933 136.104 37.256C138.195 39.944 139.24 43.0053 139.24 46.44C139.24 48.008 139.016 49.576 138.568 51.144ZM109.896 50.024C110.269 48.3067 110.456 47 110.456 46.104C110.456 42.1467 108.291 40.168 103.96 40.168H99.256L94.328 59.992H99.032C101.944 59.992 104.221 59.2827 105.864 57.864C107.581 56.4453 108.925 53.832 109.896 50.024ZM175.952 43.192C185.435 43.192 192.304 44.7227 196.56 47.784C200.816 50.7707 202.944 54.616 202.944 59.32C202.944 60.7387 202.795 62.0453 202.496 63.24C201.376 68.168 198.24 71.7147 193.088 73.88C188.011 75.9707 182 77.016 175.056 77.016C171.547 77.016 168.262 76.792 165.2 76.344C165.126 80.2267 166.171 82.952 168.336 84.52C170.502 86.088 173.526 86.872 177.408 86.872C179.2 86.872 180.918 86.6853 182.56 86.312C184.203 85.864 186.294 85.2293 188.832 84.408C190.923 83.6613 192.342 83.288 193.088 83.288C193.91 83.288 194.32 83.7733 194.32 84.744C194.395 87.3573 193.424 90.12 191.408 93.032C189.392 95.8693 186.406 98.296 182.448 100.312C178.491 102.328 173.712 103.336 168.112 103.336C159.824 103.336 153.03 101.245 147.728 97.064C142.427 92.8827 139.776 86.7973 139.776 78.808C139.776 76.568 140.075 73.9547 140.672 70.968C142.539 61.784 146.608 54.8773 152.88 50.248C159.227 45.544 166.918 43.192 175.952 43.192ZM165.984 69.624C166.283 69.6987 166.694 69.736 167.216 69.736C170.352 69.736 172.742 68.28 174.384 65.368C176.027 62.456 176.811 59.208 176.736 55.624C176.662 53.5333 176.064 52.488 174.944 52.488C174.123 52.488 173.152 53.16 172.032 54.504C170.912 55.7733 169.792 57.7147 168.672 60.328C167.627 62.9413 166.731 66.04 165.984 69.624ZM307.168 87.544C307.019 87.8427 306.944 88.2907 306.944 88.888C306.944 89.4107 307.056 89.8213 307.28 90.12C307.579 90.4187 307.952 90.568 308.4 90.568C309.296 90.568 310.043 90.1947 310.64 89.448C311.312 88.6267 311.76 88.216 311.984 88.216C312.358 88.216 312.656 88.4773 312.88 89C313.104 89.448 313.216 90.008 313.216 90.68C313.291 92.8453 312.582 94.9733 311.088 97.064C309.595 99.08 307.392 100.76 304.48 102.104C301.643 103.373 298.208 104.008 294.176 104.008C289.248 104.008 285.328 102.888 282.416 100.648C279.504 98.3333 278.011 95.272 277.936 91.464C277.936 88.7013 278.608 85.6027 279.952 82.168L286.112 66.04C286.486 65.0693 286.672 64.2853 286.672 63.688C286.672 62.7173 286.336 61.9707 285.664 61.448C285.067 60.8507 284.32 60.552 283.424 60.552C282.155 60.552 280.848 61.112 279.504 62.232C278.16 63.352 276.966 65.1067 275.92 67.496L269.76 87.544C269.611 87.8427 269.536 88.2907 269.536 88.888C269.536 89.4107 269.648 89.8213 269.872 90.12C270.171 90.4187 270.544 90.568 270.992 90.568C271.888 90.568 272.635 90.1947 273.232 89.448C273.904 88.6267 274.352 88.216 274.576 88.216C274.95 88.216 275.248 88.4773 275.472 89C275.696 89.448 275.808 90.008 275.808 90.68C275.883 92.8453 275.174 94.9733 273.68 97.064C272.187 99.08 269.984 100.76 267.072 102.104C264.235 103.373 260.8 104.008 256.768 104.008C251.84 104.008 247.92 102.888 245.008 100.648C242.096 98.3333 240.603 95.272 240.528 91.464C240.528 88.7013 241.2 85.6027 242.544 82.168L248.704 66.04C249.078 65.0693 249.264 64.2853 249.264 63.688C249.264 62.7173 248.928 61.9707 248.256 61.448C247.659 60.8507 246.912 60.552 246.016 60.552C244.747 60.552 243.44 61.112 242.096 62.232C240.752 63.2773 239.632 64.9947 238.736 67.384L231.344 91.352C231.046 92.1733 230.896 92.9573 230.896 93.704C230.896 94.6 231.083 95.3467 231.456 95.944C231.83 96.4667 232.352 97.0267 233.024 97.624C233.547 98.072 233.92 98.4827 234.144 98.856C234.368 99.2293 234.406 99.6773 234.256 100.2C233.958 101.171 233.248 101.88 232.128 102.328C231.008 102.776 229.254 103 226.864 103H201.328C199.387 103 198.006 102.701 197.184 102.104C196.288 101.432 195.952 100.573 196.176 99.528C196.475 98.632 197.259 97.848 198.528 97.176C199.648 96.5787 200.582 95.8693 201.328 95.048C202.075 94.2267 202.71 92.92 203.232 91.128L213.2 58.76C213.35 58.3867 213.424 57.864 213.424 57.192C213.424 56.3707 213.238 55.736 212.864 55.288C212.566 54.84 212.043 54.28 211.296 53.608C210.55 53.0107 210.027 52.488 209.728 52.04C209.43 51.592 209.392 50.9947 209.616 50.248C210.064 48.5307 212.416 47.0373 216.672 45.768C220.928 44.424 225.371 43.752 230 43.752C233.659 43.752 236.534 44.76 238.624 46.776C240.79 48.792 241.835 51.5547 241.76 55.064C244.822 50.808 248.032 47.8587 251.392 46.216C254.827 44.5733 258.523 43.752 262.48 43.752C266.811 43.752 270.32 45.0213 273.008 47.56C275.771 50.024 277.302 53.272 277.6 57.304C280.811 52.2267 284.246 48.7173 287.904 46.776C291.563 44.76 295.558 43.752 299.888 43.752C304.443 43.752 308.102 45.1333 310.864 47.896C313.702 50.6587 315.12 54.2427 315.12 58.648C315.12 60.9627 314.747 63.24 314 65.48L307.168 87.544ZM361.36 43.752C371.514 43.752 378.981 45.8053 383.76 49.912C388.613 54.0187 391.04 59.3947 391.04 66.04C391.04 68.28 390.741 70.7813 390.144 73.544C388.725 79.6667 386.074 85.0427 382.192 89.672C378.309 94.2267 373.53 97.7733 367.856 100.312C362.256 102.776 356.17 104.008 349.6 104.008C339.221 104.008 331.53 101.955 326.528 97.848C321.6 93.6667 319.136 88.1413 319.136 81.272C319.136 78.9573 319.434 76.3813 320.032 73.544C321.45 67.72 324.138 62.568 328.096 58.088C332.128 53.5333 337.018 50.024 342.768 47.56C348.592 45.0213 354.789 43.752 361.36 43.752ZM361.024 53.72C359.456 53.72 357.776 55.1387 355.984 57.976C354.266 60.7387 352.213 66.0027 349.824 73.768C347.434 81.5333 346.24 86.984 346.24 90.12C346.24 91.7627 346.501 92.8827 347.024 93.48C347.546 94.0027 348.256 94.264 349.152 94.264C350.72 94.4133 352.325 93.0693 353.968 90.232C355.685 87.3947 357.813 81.8693 360.352 73.656C362.666 66.4133 363.824 61.1493 363.824 57.864C363.824 56.296 363.562 55.2133 363.04 54.616C362.592 54.0187 361.92 53.72 361.024 53.72ZM441.58 45.208C442.998 45.208 444.081 45.5067 444.828 46.104C445.649 46.7013 446.06 47.5227 446.06 48.568C446.06 48.8667 445.985 49.3893 445.836 50.136C444.865 53.4213 442.625 55.064 439.116 55.064H432.62L424.22 82.728C423.846 83.848 423.66 85.0053 423.66 86.2C423.66 87.544 424.033 88.4773 424.78 89C425.526 89.5227 426.572 89.784 427.916 89.784C429.11 89.784 430.604 89.6347 432.396 89.336C433.292 89.112 434.076 89 434.748 89C435.27 89 435.644 89.1867 435.868 89.56C436.166 89.8587 436.316 90.2693 436.316 90.792C436.39 92.2853 435.27 94.1147 432.956 96.28C430.716 98.3707 427.654 100.2 423.772 101.768C419.889 103.261 415.596 104.008 410.892 104.008C405.814 104.008 401.745 102.851 398.684 100.536C395.622 98.2213 394.092 95.048 394.092 91.016C394.092 89.1493 394.39 87.3573 394.988 85.64L402.156 63.464C402.529 62.1947 402.716 61.1867 402.716 60.44C402.716 58.9467 402.342 57.6773 401.596 56.632C400.924 55.5867 399.953 54.504 398.684 53.384C397.564 52.3387 396.78 51.48 396.332 50.808C395.884 50.0613 395.772 49.2027 395.996 48.232C396.294 47.2613 396.929 46.5147 397.9 45.992C398.87 45.4693 400.401 45.208 402.492 45.208H408.764L415.82 38.152C418.284 35.688 420.524 33.9707 422.54 33C424.63 32.0293 427.318 31.544 430.604 31.544C435.308 31.544 437.66 33.336 437.66 36.92C437.66 38.04 437.51 39.0853 437.212 40.056L435.644 45.208H441.58ZM477.609 43.192C487.091 43.192 493.961 44.7227 498.217 47.784C502.473 50.7707 504.601 54.616 504.601 59.32C504.601 60.7387 504.451 62.0453 504.153 63.24C503.033 68.168 499.897 71.7147 494.745 73.88C489.667 75.9707 483.657 77.016 476.713 77.016C473.203 77.016 469.918 76.792 466.857 76.344C466.782 80.2267 467.827 82.952 469.993 84.52C472.158 86.088 475.182 86.872 479.065 86.872C480.857 86.872 482.574 86.6853 484.217 86.312C485.859 85.864 487.95 85.2293 490.489 84.408C492.579 83.6613 493.998 83.288 494.745 83.288C495.566 83.288 495.977 83.7733 495.977 84.744C496.051 87.3573 495.081 90.12 493.065 93.032C491.049 95.8693 488.062 98.296 484.105 100.312C480.147 102.328 475.369 103.336 469.769 103.336C461.481 103.336 454.686 101.245 449.385 97.064C444.083 92.8827 441.433 86.7973 441.433 78.808C441.433 76.568 441.731 73.9547 442.329 70.968C444.195 61.784 448.265 54.8773 454.537 50.248C460.883 45.544 468.574 43.192 477.609 43.192ZM467.641 69.624C467.939 69.6987 468.35 69.736 468.873 69.736C472.009 69.736 474.398 68.28 476.041 65.368C477.683 62.456 478.467 59.208 478.393 55.624C478.318 53.5333 477.721 52.488 476.601 52.488C475.779 52.488 474.809 53.16 473.689 54.504C472.569 55.7733 471.449 57.7147 470.329 60.328C469.283 62.9413 468.387 66.04 467.641 69.624Z" fill="white"/>
<path d="M648.56 39.16C648.56 41.848 647.925 44.2 646.656 46.216C645.387 48.1573 643.781 49.6507 641.84 50.696C639.973 51.6667 638.144 52.152 636.352 52.152C634.635 52.152 632.992 51.7413 631.424 50.92C629.931 50.024 628.96 49.016 628.512 47.896L601.296 93.368C599.205 96.8773 597.301 99.3787 595.584 100.872C593.941 102.291 592.037 103 589.872 103C584.869 103 582.032 99.7893 581.36 93.368L577.776 60.44L555.152 93.368C552.539 97.176 550.411 99.752 548.768 101.096C547.2 102.365 545.371 103 543.28 103C538.725 103 535.963 99.416 534.992 92.248L527.824 41.624C527.6 40.1307 527.152 38.936 526.48 38.04C525.883 37.144 525.099 36.2853 524.128 35.464C523.456 34.8667 522.971 34.3813 522.672 34.008C522.373 33.56 522.224 33.0747 522.224 32.552C521.851 29.7893 523.493 28.408 527.152 28.408H555.04C556.757 28.408 558.027 28.7813 558.848 29.528C559.744 30.2 560.155 31.1333 560.08 32.328C560.08 32.9253 559.893 33.5227 559.52 34.12C559.221 34.6427 558.885 35.128 558.512 35.576C557.691 36.472 557.093 37.3307 556.72 38.152C556.347 38.9733 556.235 40.056 556.384 41.4L559.296 68.392L576.096 44.312L575.76 41.624C575.611 40.2053 575.237 39.048 574.64 38.152C574.043 37.256 573.221 36.3973 572.176 35.576C571.429 34.904 570.907 34.3813 570.608 34.008C570.309 33.56 570.16 33.0747 570.16 32.552C569.787 29.7893 571.429 28.408 575.088 28.408H603.088C604.805 28.408 606.112 28.7813 607.008 29.528C607.904 30.2 608.315 31.1333 608.24 32.328C608.24 33.2987 607.717 34.3813 606.672 35.576C605.925 36.472 605.365 37.3307 604.992 38.152C604.619 38.9733 604.469 40.056 604.544 41.4L605.888 65.816L621.008 39.384C623.472 35.128 625.861 32.1787 628.176 30.536C630.491 28.8187 633.515 27.96 637.248 27.96C640.608 27.96 643.333 28.968 645.424 30.984C647.515 33 648.56 35.7253 648.56 39.16ZM679.422 43.752C689.577 43.752 697.043 45.8053 701.822 49.912C706.675 54.0187 709.102 59.3947 709.102 66.04C709.102 68.28 708.803 70.7813 708.206 73.544C706.787 79.6667 704.137 85.0427 700.254 89.672C696.371 94.2267 691.593 97.7733 685.918 100.312C680.318 102.776 674.233 104.008 667.662 104.008C657.283 104.008 649.593 101.955 644.59 97.848C639.662 93.6667 637.198 88.1413 637.198 81.272C637.198 78.9573 637.497 76.3813 638.094 73.544C639.513 67.72 642.201 62.568 646.158 58.088C650.19 53.5333 655.081 50.024 660.83 47.56C666.654 45.0213 672.851 43.752 679.422 43.752ZM679.086 53.72C677.518 53.72 675.838 55.1387 674.046 57.976C672.329 60.7387 670.275 66.0027 667.886 73.768C665.497 81.5333 664.302 86.984 664.302 90.12C664.302 91.7627 664.563 92.8827 665.086 93.48C665.609 94.0027 666.318 94.264 667.214 94.264C668.782 94.4133 670.387 93.0693 672.03 90.232C673.747 87.3947 675.875 81.8693 678.414 73.656C680.729 66.4133 681.886 61.1493 681.886 57.864C681.886 56.296 681.625 55.2133 681.102 54.616C680.654 54.0187 679.982 53.72 679.086 53.72ZM764.57 43.752C768.751 43.752 772.074 45.0213 774.538 47.56C777.077 50.0987 778.346 53.2347 778.346 56.968C778.346 58.3867 778.197 59.6933 777.898 60.888C777.151 63.9493 775.733 66.3013 773.642 67.944C771.551 69.5867 769.05 70.408 766.138 70.408C763.301 70.408 761.135 69.736 759.642 68.392C758.223 67.048 756.954 65.256 755.834 63.016C755.237 61.7467 754.677 60.8133 754.154 60.216C753.631 59.6187 753.034 59.32 752.362 59.32C751.615 59.32 750.943 59.6187 750.346 60.216C749.823 60.8133 749.338 61.8587 748.89 63.352L740.266 91.352C740.117 91.7253 740.042 92.2853 740.042 93.032C740.042 94.0027 740.303 94.824 740.826 95.496C741.423 96.0933 742.207 96.6907 743.178 97.288C744.074 97.8853 744.671 98.3707 744.97 98.744C745.269 99.1173 745.381 99.6027 745.306 100.2C745.157 101.171 744.597 101.88 743.626 102.328C742.73 102.776 741.162 103 738.922 103H710.25C708.309 103 706.927 102.701 706.106 102.104C705.21 101.432 704.874 100.573 705.098 99.528C705.397 98.632 706.181 97.848 707.45 97.176C708.57 96.5787 709.503 95.8693 710.25 95.048C710.997 94.2267 711.631 92.92 712.154 91.128L722.122 58.76C722.271 58.3867 722.346 57.864 722.346 57.192C722.346 56.3707 722.159 55.736 721.786 55.288C721.487 54.84 720.965 54.28 720.218 53.608C719.471 53.0107 718.949 52.488 718.65 52.04C718.351 51.592 718.314 50.9947 718.538 50.248C718.986 48.5307 721.338 47.0373 725.594 45.768C729.85 44.424 734.293 43.752 738.922 43.752C741.983 43.752 744.522 44.4613 746.538 45.88C748.554 47.224 749.861 49.1653 750.458 51.704C754.042 46.4027 758.746 43.752 764.57 43.752ZM839.76 43.752C844.016 43.752 847.413 44.9467 849.952 47.336C852.565 49.6507 853.872 52.488 853.872 55.848C853.872 59.432 852.789 62.232 850.624 64.248C848.458 66.264 845.621 67.272 842.112 67.272C838.976 67.272 836.549 66.488 834.832 64.92C833.114 63.2773 832.293 61.448 832.368 59.432C831.621 59.2827 830.986 59.5813 830.464 60.328C829.941 61.0747 829.381 62.5307 828.784 64.696C828.41 66.1147 827.701 67.4213 826.656 68.616C831.733 68.9893 835.504 70.1467 837.968 72.088C840.432 74.0293 841.664 76.5307 841.664 79.592C841.664 81.0853 841.402 82.5787 840.88 84.072L839.984 87.544C839.834 87.9173 839.76 88.4027 839.76 89C839.76 90.0453 840.245 90.568 841.216 90.568C842.112 90.568 842.858 90.1947 843.456 89.448C844.128 88.6267 844.576 88.216 844.8 88.216C845.173 88.216 845.472 88.4773 845.696 89C845.92 89.448 846.032 90.008 846.032 90.68C846.106 92.8453 845.434 94.9733 844.016 97.064C842.672 99.08 840.581 100.76 837.744 102.104C834.981 103.373 831.621 104.008 827.664 104.008C822.885 104.008 818.89 102.813 815.68 100.424C812.544 98.0347 810.976 94.8987 810.976 91.016C810.976 89.5973 811.274 87.992 811.872 86.2L814 80.6C814.373 79.256 814.56 78.2853 814.56 77.688C814.56 76.7173 814.224 76.008 813.552 75.56C812.954 75.112 811.984 74.888 810.64 74.888H808.4L803.36 91.352C803.136 92.248 803.024 93.032 803.024 93.704C803.024 94.6747 803.21 95.4587 803.584 96.056C803.957 96.5787 804.48 97.1013 805.152 97.624C805.674 98.1467 806.048 98.5947 806.272 98.968C806.496 99.2667 806.533 99.6773 806.384 100.2C806.01 101.171 805.264 101.88 804.144 102.328C803.024 102.776 801.306 103 798.992 103H773.456C771.514 103 770.096 102.701 769.2 102.104C768.304 101.432 768.005 100.573 768.304 99.528C768.602 98.632 769.386 97.848 770.656 97.176C771.776 96.5787 772.709 95.8693 773.456 95.048C774.202 94.2267 774.837 92.92 775.36 91.128L792.384 35.24C792.608 34.568 792.72 34.008 792.72 33.56C792.72 32.7387 792.496 32.0667 792.048 31.544C791.674 31.0213 791.152 30.4987 790.48 29.976C789.733 29.3787 789.173 28.856 788.8 28.408C788.501 27.96 788.464 27.3627 788.688 26.616C789.136 24.8987 791.488 23.4053 795.744 22.136C800 20.8667 804.442 20.232 809.072 20.232C813.402 20.232 816.576 21.0533 818.592 22.696C820.608 24.264 821.616 26.4667 821.616 29.304C821.616 31.0213 821.354 32.664 820.832 34.232L811.088 66.04H814.784C816.277 66.04 817.472 65.592 818.368 64.696C819.338 63.8 820.085 62.4933 820.608 60.776C822.474 55.2507 824.901 51.032 827.888 48.12C830.874 45.208 834.832 43.752 839.76 43.752Z" fill="white"/>
<path d="M988.136 28.408C990.899 28.408 993.027 29.0053 994.52 30.2C996.088 31.3947 996.872 33.0373 996.872 35.128C996.872 36.1733 996.723 37.1813 996.424 38.152L993.512 48.568C992.989 50.584 992.205 52.0027 991.16 52.824C990.189 53.5707 988.771 53.944 986.904 53.944C985.112 53.944 983.693 53.5707 982.648 52.824C981.677 52.0027 980.931 50.696 980.408 48.904L978.616 42.52C978.243 41.176 977.795 40.28 977.272 39.832C976.749 39.384 975.741 39.16 974.248 39.16H962.488L956.888 59.096H961.816C962.339 59.096 963.048 58.7227 963.944 57.976L967.752 54.616C968.872 53.6453 969.843 52.936 970.664 52.488C971.485 52.04 972.493 51.816 973.688 51.816C975.032 51.816 976.115 52.1893 976.936 52.936C977.832 53.608 978.28 54.504 978.28 55.624C978.28 55.9227 978.205 56.3707 978.056 56.968L973.464 72.536C973.016 74.1787 972.232 75.4107 971.112 76.232C970.067 76.9787 968.909 77.352 967.64 77.352C965.549 77.352 963.981 76.2693 962.936 74.104L961.032 70.184C960.509 69.064 959.688 68.504 958.568 68.504H954.2L947.592 92.248H957.448C958.867 92.248 960.099 91.9867 961.144 91.464C962.264 90.8667 963.459 89.8587 964.728 88.44L971.448 81.048C972.643 79.7787 973.763 78.8827 974.808 78.36C975.928 77.7627 977.272 77.464 978.84 77.464C980.483 77.464 981.827 77.8373 982.872 78.584C983.917 79.3307 984.44 80.4507 984.44 81.944C984.44 82.5413 984.328 83.2507 984.104 84.072L980.856 95.384C980.035 98.2213 978.84 100.2 977.272 101.32C975.704 102.44 973.427 103 970.44 103H917.016C915.448 103 914.253 102.739 913.432 102.216C912.536 101.693 912.088 100.984 912.088 100.088C912.088 99.64 912.2 99.1547 912.424 98.632C912.723 97.8107 913.208 97.176 913.88 96.728C914.552 96.28 914.963 96.0187 915.112 95.944C916.307 95.1973 917.277 94.4507 918.024 93.704C918.771 92.8827 919.405 91.576 919.928 89.784L933.704 41.512C934.003 40.5413 934.152 39.6453 934.152 38.824C934.152 37.928 934.003 37.1813 933.704 36.584C933.48 35.9867 933.107 35.352 932.584 34.68C931.912 33.7093 931.576 32.9253 931.576 32.328C931.576 32.104 931.651 31.6933 931.8 31.096C932.099 30.1253 932.771 29.4533 933.816 29.08C934.861 28.632 936.392 28.408 938.408 28.408H988.136ZM1059.47 87.544C1059.32 87.8427 1059.24 88.2907 1059.24 88.888C1059.24 89.4107 1059.36 89.8213 1059.58 90.12C1059.88 90.4187 1060.25 90.568 1060.7 90.568C1061.6 90.568 1062.34 90.1947 1062.94 89.448C1063.61 88.6267 1064.06 88.216 1064.28 88.216C1064.66 88.216 1064.96 88.4773 1065.18 89C1065.4 89.448 1065.52 90.008 1065.52 90.68C1065.59 92.8453 1064.88 94.9733 1063.39 97.064C1061.9 99.08 1059.69 100.76 1056.78 102.104C1053.94 103.373 1050.51 104.008 1046.48 104.008C1041.55 104.008 1037.63 102.888 1034.72 100.648C1031.8 98.3333 1030.31 95.272 1030.24 91.464C1030.24 88.7013 1030.91 85.6027 1032.25 82.168L1038.41 66.04C1038.79 65.0693 1038.97 64.2853 1038.97 63.688C1038.97 62.7173 1038.64 61.9707 1037.96 61.448C1037.37 60.8507 1036.62 60.552 1035.72 60.552C1034.08 60.552 1032.51 61.336 1031.02 62.904C1029.53 64.3973 1028.44 66.264 1027.77 68.504L1020.83 91.352C1020.53 92.1733 1020.38 92.9573 1020.38 93.704C1020.38 94.6 1020.57 95.3467 1020.94 95.944C1021.31 96.4667 1021.84 97.0267 1022.51 97.624C1023.03 98.072 1023.4 98.4827 1023.63 98.856C1023.85 99.2293 1023.89 99.6773 1023.74 100.2C1023.44 101.171 1022.73 101.88 1021.61 102.328C1020.49 102.776 1018.74 103 1016.35 103H990.813C988.871 103 987.49 102.701 986.669 102.104C985.773 101.432 985.437 100.573 985.661 99.528C985.959 98.632 986.743 97.848 988.013 97.176C989.133 96.5787 990.066 95.8693 990.813 95.048C991.559 94.2267 992.194 92.92 992.717 91.128L1002.68 58.76C1002.83 58.3867 1002.91 57.864 1002.91 57.192C1002.91 56.3707 1002.72 55.736 1002.35 55.288C1002.05 54.84 1001.53 54.28 1000.78 53.608C1000.03 53.0107 999.511 52.488 999.213 52.04C998.914 51.592 998.877 50.9947 999.101 50.248C999.549 48.5307 1001.9 47.0373 1006.16 45.768C1010.41 44.424 1014.86 43.752 1019.48 43.752C1023.22 43.752 1026.17 44.7973 1028.33 46.888C1030.5 48.904 1031.47 51.7413 1031.24 55.4C1034.31 50.9947 1037.55 47.9707 1040.99 46.328C1044.42 44.6107 1048.16 43.752 1052.19 43.752C1056.74 43.752 1060.4 45.1333 1063.16 47.896C1066 50.6587 1067.42 54.2427 1067.42 58.648C1067.42 60.9627 1067.05 63.24 1066.3 65.48L1059.47 87.544ZM1110.97 43.192C1115.52 43.192 1119.52 43.864 1122.95 45.208C1126.39 46.4773 1129.04 48.2693 1130.9 50.584C1132.85 52.824 1133.82 55.3253 1133.82 58.088C1133.82 61.0747 1132.77 63.5387 1130.68 65.48C1128.66 67.4213 1125.9 68.392 1122.39 68.392C1118.81 68.392 1116.01 67.496 1113.99 65.704C1111.98 63.8373 1110.97 61.336 1110.97 58.2C1110.97 56.7067 1111.19 55.1387 1111.64 53.496C1108.5 54.3173 1105.7 55.96 1103.24 58.424C1100.85 60.8133 1099.25 63.9867 1098.42 67.944C1097.98 70.184 1097.75 72.2 1097.75 73.992C1097.75 78.024 1098.87 81.0853 1101.11 83.176C1103.35 85.2667 1106.56 86.312 1110.74 86.312C1113.13 86.312 1115.19 86.088 1116.9 85.64C1118.62 85.1173 1120.38 84.4453 1122.17 83.624C1123.66 82.8773 1124.74 82.504 1125.42 82.504C1125.86 82.504 1126.16 82.616 1126.31 82.84C1126.46 82.9893 1126.54 83.3627 1126.54 83.96C1126.61 86.7227 1125.45 89.6347 1123.06 92.696C1120.75 95.6827 1117.5 98.2213 1113.32 100.312C1109.21 102.328 1104.58 103.336 1099.43 103.336C1094.06 103.336 1089.28 102.365 1085.1 100.424C1080.99 98.408 1077.78 95.5707 1075.46 91.912C1073.22 88.1787 1072.1 83.848 1072.1 78.92C1072.1 76.6053 1072.4 74.0293 1073 71.192C1075.02 61.9333 1079.46 54.952 1086.33 50.248C1093.27 45.544 1101.49 43.192 1110.97 43.192ZM1193.77 43.752C1197.05 43.752 1199.66 45.096 1201.61 47.784C1203.62 50.3973 1204.63 53.9813 1204.63 58.536C1204.63 62.4933 1203.92 66.7493 1202.5 71.304C1199.74 80.488 1195.3 89.1493 1189.17 97.288C1183.13 105.427 1176.14 111.96 1168.23 116.888C1160.39 121.816 1152.55 124.28 1144.71 124.28C1140.83 124.28 1137.47 123.608 1134.63 122.264C1131.87 120.92 1129.78 119.128 1128.36 116.888C1126.86 114.648 1126.12 112.259 1126.12 109.72C1126.12 108.6 1126.3 107.368 1126.68 106.024C1127.35 103.933 1128.47 102.328 1130.04 101.208C1131.61 100.088 1133.47 99.528 1135.64 99.528C1139.07 99.528 1141.87 100.685 1144.04 103C1146.28 105.389 1147.7 108.637 1148.29 112.744C1153.07 112.52 1157.48 110.467 1161.51 106.584C1157.7 105.912 1154.86 104.643 1153 102.776C1151.21 100.835 1149.97 97.848 1149.3 93.816L1144.82 66.376C1144.6 64.9573 1144.26 63.9867 1143.81 63.464C1143.44 62.8667 1142.92 62.568 1142.25 62.568C1141.72 62.568 1141.09 62.8293 1140.34 63.352C1139.67 63.8747 1139.18 64.136 1138.89 64.136C1138.29 64.136 1137.99 63.5013 1137.99 62.232C1137.99 61.1867 1138.18 60.0667 1138.55 58.872C1139.89 54.616 1142.4 51.032 1146.05 48.12C1149.71 45.1333 1153.97 43.64 1158.82 43.64C1163.6 43.64 1167.11 45.0587 1169.35 47.896C1171.66 50.7333 1173.16 55.1013 1173.83 61L1177.19 85.64C1177.41 87.5067 1178.09 88.44 1179.21 88.44C1180.55 88.44 1182.12 87.2453 1183.91 84.856C1185.7 82.392 1187.46 78.92 1189.17 74.44C1186.93 72.424 1185.22 70.1093 1184.02 67.496C1182.83 64.8827 1182.23 62.0827 1182.23 59.096C1182.23 56.7813 1182.53 54.6907 1183.13 52.824C1184.02 49.8373 1185.4 47.5973 1187.27 46.104C1189.21 44.536 1191.38 43.752 1193.77 43.752ZM1244.52 43.192C1249.07 43.192 1253.06 43.864 1256.5 45.208C1259.93 46.4773 1262.58 48.2693 1264.45 50.584C1266.39 52.824 1267.36 55.3253 1267.36 58.088C1267.36 61.0747 1266.32 63.5387 1264.23 65.48C1262.21 67.4213 1259.45 68.392 1255.94 68.392C1252.36 68.392 1249.56 67.496 1247.54 65.704C1245.52 63.8373 1244.52 61.336 1244.52 58.2C1244.52 56.7067 1244.74 55.1387 1245.19 53.496C1242.05 54.3173 1239.25 55.96 1236.79 58.424C1234.4 60.8133 1232.79 63.9867 1231.97 67.944C1231.52 70.184 1231.3 72.2 1231.3 73.992C1231.3 78.024 1232.42 81.0853 1234.66 83.176C1236.9 85.2667 1240.11 86.312 1244.29 86.312C1246.68 86.312 1248.73 86.088 1250.45 85.64C1252.17 85.1173 1253.92 84.4453 1255.72 83.624C1257.21 82.8773 1258.29 82.504 1258.96 82.504C1259.41 82.504 1259.71 82.616 1259.86 82.84C1260.01 82.9893 1260.08 83.3627 1260.08 83.96C1260.16 86.7227 1259 89.6347 1256.61 92.696C1254.3 95.6827 1251.05 98.2213 1246.87 100.312C1242.76 102.328 1238.13 103.336 1232.98 103.336C1227.6 103.336 1222.82 102.365 1218.64 100.424C1214.54 98.408 1211.33 95.5707 1209.01 91.912C1206.77 88.1787 1205.65 83.848 1205.65 78.92C1205.65 76.6053 1205.95 74.0293 1206.55 71.192C1208.56 61.9333 1213.01 54.952 1219.88 50.248C1226.82 45.544 1235.03 43.192 1244.52 43.192ZM1300.29 20.232C1304.62 20.232 1307.79 21.0533 1309.81 22.696C1311.9 24.3387 1312.95 26.5787 1312.95 29.416C1312.95 31.0587 1312.69 32.664 1312.16 34.232L1294.58 91.352C1294.35 92.248 1294.24 93.032 1294.24 93.704C1294.24 94.6747 1294.43 95.4587 1294.8 96.056C1295.18 96.5787 1295.7 97.1013 1296.37 97.624C1296.89 98.1467 1297.27 98.5947 1297.49 98.968C1297.71 99.2667 1297.75 99.6773 1297.6 100.2C1297.23 101.171 1296.48 101.88 1295.36 102.328C1294.24 102.776 1292.53 103 1290.21 103H1264.67C1262.73 103 1261.31 102.701 1260.42 102.104C1259.52 101.432 1259.22 100.573 1259.52 99.528C1259.82 98.632 1260.61 97.848 1261.87 97.176C1262.99 96.5787 1263.93 95.8693 1264.67 95.048C1265.42 94.2267 1266.06 92.92 1266.58 91.128L1283.6 35.24C1283.83 34.568 1283.94 34.008 1283.94 33.56C1283.94 32.7387 1283.71 32.0667 1283.27 31.544C1282.89 31.0213 1282.37 30.4987 1281.7 29.976C1280.95 29.3787 1280.39 28.856 1280.02 28.408C1279.72 27.96 1279.68 27.3627 1279.91 26.616C1280.35 24.8987 1282.71 23.4053 1286.96 22.136C1291.22 20.8667 1295.66 20.232 1300.29 20.232ZM1348.92 43.752C1359.08 43.752 1366.54 45.8053 1371.32 49.912C1376.18 54.0187 1378.6 59.3947 1378.6 66.04C1378.6 68.28 1378.3 70.7813 1377.71 73.544C1376.29 79.6667 1373.64 85.0427 1369.75 89.672C1365.87 94.2267 1361.09 97.7733 1355.42 100.312C1349.82 102.776 1343.73 104.008 1337.16 104.008C1326.78 104.008 1319.09 101.955 1314.09 97.848C1309.16 93.6667 1306.7 88.1413 1306.7 81.272C1306.7 78.9573 1307 76.3813 1307.59 73.544C1309.01 67.72 1311.7 62.568 1315.66 58.088C1319.69 53.5333 1324.58 50.024 1330.33 47.56C1336.15 45.0213 1342.35 43.752 1348.92 43.752ZM1348.59 53.72C1347.02 53.72 1345.34 55.1387 1343.55 57.976C1341.83 60.7387 1339.78 66.0027 1337.39 73.768C1335 81.5333 1333.8 86.984 1333.8 90.12C1333.8 91.7627 1334.06 92.8827 1334.59 93.48C1335.11 94.0027 1335.82 94.264 1336.71 94.264C1338.28 94.4133 1339.89 93.0693 1341.53 90.232C1343.25 87.3947 1345.38 81.8693 1347.91 73.656C1350.23 66.4133 1351.39 61.1493 1351.39 57.864C1351.39 56.296 1351.12 55.2133 1350.6 54.616C1350.15 54.0187 1349.48 53.72 1348.59 53.72ZM1435.47 43.304C1441.22 43.304 1445.73 45.208 1449.02 49.016C1452.3 52.824 1453.95 58.0133 1453.95 64.584C1453.95 68.0933 1453.46 71.7893 1452.49 75.672C1450.25 84.9307 1446.07 91.9867 1439.95 96.84C1433.82 101.619 1426.73 104.008 1418.67 104.008C1413.51 104.008 1409.03 102.925 1405.23 100.76L1401.64 112.744C1401.34 113.565 1401.19 114.349 1401.19 115.096C1401.19 115.917 1401.38 116.589 1401.75 117.112C1402.13 117.709 1402.61 118.269 1403.21 118.792C1403.81 119.389 1404.18 119.875 1404.33 120.248C1404.55 120.621 1404.59 121.069 1404.44 121.592C1404.14 122.563 1403.43 123.235 1402.31 123.608C1401.19 124.056 1399.48 124.28 1397.16 124.28H1371.51C1369.57 124.28 1368.19 123.944 1367.37 123.272C1366.47 122.675 1366.21 121.891 1366.59 120.92C1366.74 120.323 1367 119.837 1367.37 119.464C1367.74 119.091 1368.27 118.755 1368.94 118.456C1370.06 117.709 1370.95 116.925 1371.63 116.104C1372.3 115.357 1372.9 114.125 1373.42 112.408L1389.77 58.76C1389.99 58.088 1390.11 57.528 1390.11 57.08C1390.11 56.2587 1389.92 55.624 1389.55 55.176C1389.17 54.6533 1388.61 54.1307 1387.87 53.608C1387.12 53.0107 1386.6 52.488 1386.3 52.04C1386 51.592 1385.96 50.9947 1386.19 50.248C1386.63 48.5307 1388.99 47.0373 1393.24 45.768C1397.5 44.424 1401.94 43.752 1406.57 43.752C1409.86 43.752 1412.54 44.5733 1414.63 46.216C1416.8 47.8587 1418.03 50.136 1418.33 53.048C1423.41 46.552 1429.12 43.304 1435.47 43.304ZM1422.47 76.568C1424.27 69.9227 1425.16 65.3307 1425.16 62.792C1425.16 61.224 1424.9 60.216 1424.38 59.768C1423.93 59.2453 1423.26 58.984 1422.36 58.984C1421.69 58.984 1420.83 59.32 1419.79 59.992C1418.74 60.5893 1417.7 61.6347 1416.65 63.128L1407.8 92.472C1408.7 93.368 1409.78 93.816 1411.05 93.816C1413.07 93.816 1414.97 92.696 1416.76 90.456C1418.63 88.1413 1420.53 83.512 1422.47 76.568ZM1492.3 43.192C1501.78 43.192 1508.65 44.7227 1512.9 47.784C1517.16 50.7707 1519.29 54.616 1519.29 59.32C1519.29 60.7387 1519.14 62.0453 1518.84 63.24C1517.72 68.168 1514.58 71.7147 1509.43 73.88C1504.35 75.9707 1498.34 77.016 1491.4 77.016C1487.89 77.016 1484.61 76.792 1481.54 76.344C1481.47 80.2267 1482.51 82.952 1484.68 84.52C1486.85 86.088 1489.87 86.872 1493.75 86.872C1495.54 86.872 1497.26 86.6853 1498.9 86.312C1500.55 85.864 1502.64 85.2293 1505.18 84.408C1507.27 83.6613 1508.69 83.288 1509.43 83.288C1510.25 83.288 1510.66 83.7733 1510.66 84.744C1510.74 87.3573 1509.77 90.12 1507.75 93.032C1505.74 95.8693 1502.75 98.296 1498.79 100.312C1494.83 102.328 1490.06 103.336 1484.46 103.336C1476.17 103.336 1469.37 101.245 1464.07 97.064C1458.77 92.8827 1456.12 86.7973 1456.12 78.808C1456.12 76.568 1456.42 73.9547 1457.02 70.968C1458.88 61.784 1462.95 54.8773 1469.22 50.248C1475.57 45.544 1483.26 43.192 1492.3 43.192ZM1482.33 69.624C1482.63 69.6987 1483.04 69.736 1483.56 69.736C1486.7 69.736 1489.09 68.28 1490.73 65.368C1492.37 62.456 1493.15 59.208 1493.08 55.624C1493.01 53.5333 1492.41 52.488 1491.29 52.488C1490.47 52.488 1489.5 53.16 1488.38 54.504C1487.26 55.7733 1486.14 57.7147 1485.02 60.328C1483.97 62.9413 1483.07 66.04 1482.33 69.624ZM1579.61 86.872C1579.46 87.4693 1579.38 87.88 1579.38 88.104C1579.38 88.6267 1579.53 89.0373 1579.83 89.336C1580.13 89.6347 1580.5 89.784 1580.95 89.784C1581.85 89.784 1582.59 89.4107 1583.19 88.664C1583.86 87.8427 1584.31 87.432 1584.54 87.432C1584.91 87.432 1585.21 87.6933 1585.43 88.216C1585.66 88.7387 1585.77 89.336 1585.77 90.008C1585.84 92.024 1585.06 94.0773 1583.42 96.168C1581.85 98.2587 1579.72 99.976 1577.03 101.32C1574.34 102.664 1571.43 103.336 1568.3 103.336C1564.56 103.336 1561.31 102.627 1558.55 101.208C1555.79 99.7893 1553.89 97.9227 1552.84 95.608C1550.82 98.2213 1548.51 100.163 1545.9 101.432C1543.28 102.701 1540.52 103.336 1537.61 103.336C1534.17 103.336 1530.96 102.477 1527.98 100.76C1525.06 99.0427 1522.71 96.616 1520.92 93.48C1519.2 90.2693 1518.34 86.648 1518.34 82.616C1518.34 75.8213 1519.61 69.4373 1522.15 63.464C1524.77 57.416 1528.39 52.5627 1533.02 48.904C1537.65 45.1707 1542.91 43.304 1548.81 43.304C1552.02 43.304 1554.74 43.6773 1556.98 44.424C1559.3 45.1707 1561.39 46.2907 1563.26 47.784L1567.06 35.24C1567.29 34.568 1567.4 34.008 1567.4 33.56C1567.4 32.7387 1567.18 32.0667 1566.73 31.544C1566.35 31.0213 1565.83 30.4987 1565.16 29.976C1564.41 29.3787 1563.85 28.856 1563.48 28.408C1563.18 27.96 1563.14 27.3627 1563.37 26.616C1563.82 24.8987 1566.17 23.4053 1570.42 22.136C1574.68 20.8667 1579.12 20.232 1583.75 20.232C1588.08 20.232 1591.26 21.0533 1593.27 22.696C1595.36 24.3387 1596.41 26.5787 1596.41 29.416C1596.41 31.0587 1596.15 32.664 1595.62 34.232L1579.61 86.872ZM1560.9 55.4C1559.71 54.3547 1558.4 53.832 1556.98 53.832C1554.82 53.832 1552.69 55.4373 1550.6 58.648C1548.51 61.8587 1546.83 65.7413 1545.56 70.296C1544.29 74.8507 1543.69 78.9573 1543.77 82.616C1543.77 86.7227 1545.11 88.776 1547.8 88.776C1548.77 88.776 1549.59 88.4027 1550.26 87.656C1550.94 86.8347 1551.57 85.528 1552.17 83.736L1560.9 55.4ZM1619.85 43.752C1624.18 43.752 1627.35 44.5733 1629.37 46.216C1631.38 47.8587 1632.39 50.0987 1632.39 52.936C1632.39 54.6533 1632.13 56.296 1631.61 57.864L1621.3 91.352C1621.08 92.248 1620.97 93.032 1620.97 93.704C1620.97 94.6747 1621.15 95.4587 1621.53 96.056C1621.9 96.5787 1622.42 97.1013 1623.09 97.624C1623.62 98.1467 1623.99 98.5947 1624.21 98.968C1624.44 99.2667 1624.48 99.6773 1624.33 100.2C1623.95 101.171 1623.21 101.88 1622.09 102.328C1620.97 102.776 1619.25 103 1616.93 103H1591.4C1589.46 103 1588.04 102.701 1587.14 102.104C1586.25 101.432 1585.95 100.573 1586.25 99.528C1586.55 98.632 1587.33 97.848 1588.6 97.176C1589.72 96.5787 1590.65 95.8693 1591.4 95.048C1592.15 94.2267 1592.78 92.92 1593.3 91.128L1603.05 58.76C1603.27 58.088 1603.38 57.528 1603.38 57.08C1603.38 56.2587 1603.2 55.624 1602.82 55.176C1602.45 54.6533 1601.89 54.1307 1601.14 53.608C1600.4 53.0107 1599.87 52.488 1599.57 52.04C1599.28 51.592 1599.24 50.9947 1599.46 50.248C1599.91 48.5307 1602.26 47.0373 1606.52 45.768C1610.77 44.424 1615.22 43.752 1619.85 43.752ZM1627.35 19C1630.26 19 1632.69 19.9707 1634.63 21.912C1636.57 23.7787 1637.54 26.0933 1637.54 28.856C1637.54 30.7973 1637.02 32.7013 1635.97 34.568C1635 36.4347 1633.59 37.9653 1631.72 39.16C1629.93 40.28 1627.91 40.84 1625.67 40.84C1622.83 40.84 1620.44 39.9067 1618.5 38.04C1616.64 36.0987 1615.67 33.7093 1615.59 30.872C1615.59 29.0053 1616.08 27.176 1617.05 25.384C1618.02 23.5173 1619.4 21.9867 1621.19 20.792C1622.98 19.5973 1625.04 19 1627.35 19ZM1671.39 43.752C1679.98 43.752 1686.85 45.3573 1692 48.568C1697.15 51.704 1699.73 56.52 1699.73 63.016C1699.73 65.48 1699.28 68.28 1698.38 71.416L1693.79 86.872C1693.72 87.1707 1693.68 87.544 1693.68 87.992C1693.68 89.1867 1694.16 89.784 1695.13 89.784C1696.03 89.784 1696.78 89.4107 1697.37 88.664C1698.05 87.8427 1698.49 87.432 1698.72 87.432C1699.09 87.432 1699.39 87.6933 1699.61 88.216C1699.91 88.7387 1700.06 89.336 1700.06 90.008C1700.14 92.024 1699.35 94.0773 1697.71 96.168C1696.14 98.2587 1694.01 99.976 1691.33 101.32C1688.64 102.664 1685.69 103.336 1682.48 103.336C1678.6 103.336 1675.27 102.627 1672.51 101.208C1669.75 99.7893 1667.84 97.6987 1666.8 94.936C1664.56 97.624 1661.91 99.7147 1658.85 101.208C1655.78 102.627 1652.5 103.336 1648.99 103.336C1645.03 103.336 1641.71 102.589 1639.02 101.096C1636.33 99.528 1634.32 97.5493 1632.97 95.16C1631.7 92.696 1631.07 90.12 1631.07 87.432C1631.07 86.2373 1631.18 85.08 1631.41 83.96C1632.6 78.808 1635.18 74.9253 1639.13 72.312C1643.17 69.6987 1647.94 68.392 1653.47 68.392C1659.67 68.392 1665.75 69.3627 1671.73 71.304L1674.53 63.912C1675.5 60.776 1675.98 58.3493 1675.98 56.632C1675.91 54.84 1675.31 53.496 1674.19 52.6C1673.07 51.704 1671.35 51.256 1669.04 51.256C1669.49 52.4507 1669.71 53.6827 1669.71 54.952C1669.71 57.7147 1668.66 60.104 1666.57 62.12C1664.48 64.136 1661.5 65.144 1657.61 65.144C1653.96 65.144 1651.08 64.36 1648.99 62.792C1646.97 61.1493 1645.97 59.1333 1645.97 56.744C1645.97 53.0107 1648.06 49.912 1652.24 47.448C1656.42 44.984 1662.8 43.752 1671.39 43.752ZM1665.12 77.688C1663.03 77.688 1661.31 78.5093 1659.97 80.152C1658.7 81.72 1658.06 83.4373 1658.06 85.304C1658.06 86.4987 1658.32 87.4693 1658.85 88.216C1659.44 88.9627 1660.26 89.336 1661.31 89.336C1662.28 89.336 1663.33 88.9627 1664.45 88.216C1665.64 87.3947 1666.5 86.2 1667.02 84.632L1669.37 78.024C1668.1 77.8 1666.69 77.688 1665.12 77.688Z" fill="url(#paint1_linear)"/>
</g>
<defs>
<filter id="filter0_dd" x="-30.4423" y="-26" width="967.884" height="191" filterUnits="userSpaceOnUse" color-interpolation-filters="sRGB">
<feFlood flood-opacity="0" result="BackgroundImageFix"/>
<feColorMatrix in="SourceAlpha" type="matrix" values="0 0 0 0 0 0 0 0 0 0 0 0 0 0 0 0 0 0 127 0"/>
<feOffset dy="2"/>
<feGaussianBlur stdDeviation="16"/>
<feColorMatrix type="matrix" values="0 0 0 0 0 0 0 0 0 0 0 0 0 0 0 0 0 0 0.06 0"/>
<feBlend mode="normal" in2="BackgroundImageFix" result="effect1_dropShadow"/>
<feColorMatrix in="SourceAlpha" type="matrix" values="0 0 0 0 0 0 0 0 0 0 0 0 0 0 0 0 0 0 127 0"/>
<feOffset dy="4"/>
<feGaussianBlur stdDeviation="4"/>
<feColorMatrix type="matrix" values="0 0 0 0 0 0 0 0 0 0 0 0 0 0 0 0 0 0 0.08 0"/>
<feBlend mode="normal" in2="effect1_dropShadow" result="effect2_dropShadow"/>
<feBlend mode="normal" in="SourceGraphic" in2="effect2_dropShadow" result="shape"/>
</filter>
<linearGradient id="paint0_linear" x1="829" y1="313.5" x2="185.5" y2="-235" gradientUnits="userSpaceOnUse">
<stop stop-color="#2B3FF4"/>
<stop offset="1" stop-color="#0A68FF"/>
</linearGradient>
<linearGradient id="paint1_linear" x1="1310" y1="-12" x2="1310" y2="151" gradientUnits="userSpaceOnUse">
<stop stop-color="#0D2243"/>
<stop offset="1" stop-color="#080E35"/>
</linearGradient>
<clipPath id="clip0">
<rect width="1705" height="134" fill="white"/>
</clipPath>
</defs>
</svg>
