<svg width="907" height="254" viewBox="0 0 907 254" fill="none" xmlns="http://www.w3.org/2000/svg">
<g clip-path="url(#clip0)">
<rect width="907" height="254" fill="white"/>
<g filter="url(#filter0_dd)">
<path d="M33.9153 7.67419C34.5121 5.50394 36.4855 4 38.7363 4H900.439C903.741 4 906.136 7.14271 905.26 10.3258L873.085 127.326C872.488 129.496 870.515 131 868.264 131H6.56067C3.2594 131 0.864264 127.857 1.73963 124.674L33.9153 7.67419Z" fill="url(#paint0_linear)"/>
</g>
<path d="M138.568 51.144C137.373 55.4747 135.133 58.872 131.848 61.336C128.563 63.7253 124.419 65.2187 119.416 65.816C123 66.1147 125.688 67.16 127.48 68.952C129.272 70.744 130.168 73.096 130.168 76.008C130.168 77.128 129.981 78.5093 129.608 80.152L128.376 85.64C128.227 86.3867 128.152 86.9093 128.152 87.208C128.152 88.1787 128.376 88.9253 128.824 89.448C129.272 89.896 129.907 90.12 130.728 90.12C132.296 90.12 133.416 90.344 134.088 90.792C134.835 91.24 135.096 92.0613 134.872 93.256C134.573 94.9733 133.677 96.6533 132.184 98.296C130.691 99.9387 128.563 101.32 125.8 102.44C123.112 103.485 119.827 104.008 115.944 104.008C111.016 104.008 107.096 102.925 104.184 100.76C101.272 98.52 99.816 95.3467 99.816 91.24C99.816 89.672 100.04 87.992 100.488 86.2L102.28 79.032C102.579 78.0613 102.728 77.0533 102.728 76.008C102.728 74.2907 102.131 73.0587 100.936 72.312C99.816 71.5653 97.9867 71.192 95.448 71.192H91.192L86.04 89.784C85.8907 90.232 85.816 90.792 85.816 91.464C85.816 92.5093 86.0773 93.4053 86.6 94.152C87.1227 94.8987 87.832 95.6827 88.728 96.504C89.4 97.0267 89.9227 97.5493 90.296 98.072C90.6693 98.52 90.856 99.0053 90.856 99.528C90.856 100.797 90.2587 101.693 89.064 102.216C87.8693 102.739 86.1147 103 83.8 103H55.688C53.7467 103 52.2907 102.664 51.32 101.992C50.3493 101.245 50.0133 100.237 50.312 98.968C50.4613 98.296 50.76 97.7733 51.208 97.4C51.5813 96.952 52.1787 96.4667 53 95.944C54.2693 95.1973 55.2773 94.4133 56.024 93.592C56.7707 92.7707 57.368 91.5013 57.816 89.784L71.48 41.512C71.7787 40.5413 71.928 39.608 71.928 38.712C71.928 37.8907 71.7787 37.2187 71.48 36.696C71.256 36.0987 70.92 35.4267 70.472 34.68C69.8 33.7093 69.464 32.9253 69.464 32.328C69.464 32.104 69.5387 31.6933 69.688 31.096C69.9867 30.1253 70.6213 29.4533 71.592 29.08C72.6373 28.632 74.2053 28.408 76.296 28.408H113.816C118.968 28.408 123.448 29.192 127.256 30.76C131.139 32.328 134.088 34.4933 136.104 37.256C138.195 39.944 139.24 43.0053 139.24 46.44C139.24 48.008 139.016 49.576 138.568 51.144ZM109.896 50.024C110.269 48.3067 110.456 47 110.456 46.104C110.456 42.1467 108.291 40.168 103.96 40.168H99.256L94.328 59.992H99.032C101.944 59.992 104.221 59.2827 105.864 57.864C107.581 56.4453 108.925 53.832 109.896 50.024ZM175.952 43.192C185.435 43.192 192.304 44.7227 196.56 47.784C200.816 50.7707 202.944 54.616 202.944 59.32C202.944 60.7387 202.795 62.0453 202.496 63.24C201.376 68.168 198.24 71.7147 193.088 73.88C188.011 75.9707 182 77.016 175.056 77.016C171.547 77.016 168.262 76.792 165.2 76.344C165.126 80.2267 166.171 82.952 168.336 84.52C170.502 86.088 173.526 86.872 177.408 86.872C179.2 86.872 180.918 86.6853 182.56 86.312C184.203 85.864 186.294 85.2293 188.832 84.408C190.923 83.6613 192.342 83.288 193.088 83.288C193.91 83.288 194.32 83.7733 194.32 84.744C194.395 87.3573 193.424 90.12 191.408 93.032C189.392 95.8693 186.406 98.296 182.448 100.312C178.491 102.328 173.712 103.336 168.112 103.336C159.824 103.336 153.03 101.245 147.728 97.064C142.427 92.8827 139.776 86.7973 139.776 78.808C139.776 76.568 140.075 73.9547 140.672 70.968C142.539 61.784 146.608 54.8773 152.88 50.248C159.227 45.544 166.918 43.192 175.952 43.192ZM165.984 69.624C166.283 69.6987 166.694 69.736 167.216 69.736C170.352 69.736 172.742 68.28 174.384 65.368C176.027 62.456 176.811 59.208 176.736 55.624C176.662 53.5333 176.064 52.488 174.944 52.488C174.123 52.488 173.152 53.16 172.032 54.504C170.912 55.7733 169.792 57.7147 168.672 60.328C167.627 62.9413 166.731 66.04 165.984 69.624ZM307.168 87.544C307.019 87.8427 306.944 88.2907 306.944 88.888C306.944 89.4107 307.056 89.8213 307.28 90.12C307.579 90.4187 307.952 90.568 308.4 90.568C309.296 90.568 310.043 90.1947 310.64 89.448C311.312 88.6267 311.76 88.216 311.984 88.216C312.358 88.216 312.656 88.4773 312.88 89C313.104 89.448 313.216 90.008 313.216 90.68C313.291 92.8453 312.582 94.9733 311.088 97.064C309.595 99.08 307.392 100.76 304.48 102.104C301.643 103.373 298.208 104.008 294.176 104.008C289.248 104.008 285.328 102.888 282.416 100.648C279.504 98.3333 278.011 95.272 277.936 91.464C277.936 88.7013 278.608 85.6027 279.952 82.168L286.112 66.04C286.486 65.0693 286.672 64.2853 286.672 63.688C286.672 62.7173 286.336 61.9707 285.664 61.448C285.067 60.8507 284.32 60.552 283.424 60.552C282.155 60.552 280.848 61.112 279.504 62.232C278.16 63.352 276.966 65.1067 275.92 67.496L269.76 87.544C269.611 87.8427 269.536 88.2907 269.536 88.888C269.536 89.4107 269.648 89.8213 269.872 90.12C270.171 90.4187 270.544 90.568 270.992 90.568C271.888 90.568 272.635 90.1947 273.232 89.448C273.904 88.6267 274.352 88.216 274.576 88.216C274.95 88.216 275.248 88.4773 275.472 89C275.696 89.448 275.808 90.008 275.808 90.68C275.883 92.8453 275.174 94.9733 273.68 97.064C272.187 99.08 269.984 100.76 267.072 102.104C264.235 103.373 260.8 104.008 256.768 104.008C251.84 104.008 247.92 102.888 245.008 100.648C242.096 98.3333 240.603 95.272 240.528 91.464C240.528 88.7013 241.2 85.6027 242.544 82.168L248.704 66.04C249.078 65.0693 249.264 64.2853 249.264 63.688C249.264 62.7173 248.928 61.9707 248.256 61.448C247.659 60.8507 246.912 60.552 246.016 60.552C244.747 60.552 243.44 61.112 242.096 62.232C240.752 63.2773 239.632 64.9947 238.736 67.384L231.344 91.352C231.046 92.1733 230.896 92.9573 230.896 93.704C230.896 94.6 231.083 95.3467 231.456 95.944C231.83 96.4667 232.352 97.0267 233.024 97.624C233.547 98.072 233.92 98.4827 234.144 98.856C234.368 99.2293 234.406 99.6773 234.256 100.2C233.958 101.171 233.248 101.88 232.128 102.328C231.008 102.776 229.254 103 226.864 103H201.328C199.387 103 198.006 102.701 197.184 102.104C196.288 101.432 195.952 100.573 196.176 99.528C196.475 98.632 197.259 97.848 198.528 97.176C199.648 96.5787 200.582 95.8693 201.328 95.048C202.075 94.2267 202.71 92.92 203.232 91.128L213.2 58.76C213.35 58.3867 213.424 57.864 213.424 57.192C213.424 56.3707 213.238 55.736 212.864 55.288C212.566 54.84 212.043 54.28 211.296 53.608C210.55 53.0107 210.027 52.488 209.728 52.04C209.43 51.592 209.392 50.9947 209.616 50.248C210.064 48.5307 212.416 47.0373 216.672 45.768C220.928 44.424 225.371 43.752 230 43.752C233.659 43.752 236.534 44.76 238.624 46.776C240.79 48.792 241.835 51.5547 241.76 55.064C244.822 50.808 248.032 47.8587 251.392 46.216C254.827 44.5733 258.523 43.752 262.48 43.752C266.811 43.752 270.32 45.0213 273.008 47.56C275.771 50.024 277.302 53.272 277.6 57.304C280.811 52.2267 284.246 48.7173 287.904 46.776C291.563 44.76 295.558 43.752 299.888 43.752C304.443 43.752 308.102 45.1333 310.864 47.896C313.702 50.6587 315.12 54.2427 315.12 58.648C315.12 60.9627 314.747 63.24 314 65.48L307.168 87.544ZM361.36 43.752C371.514 43.752 378.981 45.8053 383.76 49.912C388.613 54.0187 391.04 59.3947 391.04 66.04C391.04 68.28 390.741 70.7813 390.144 73.544C388.725 79.6667 386.074 85.0427 382.192 89.672C378.309 94.2267 373.53 97.7733 367.856 100.312C362.256 102.776 356.17 104.008 349.6 104.008C339.221 104.008 331.53 101.955 326.528 97.848C321.6 93.6667 319.136 88.1413 319.136 81.272C319.136 78.9573 319.434 76.3813 320.032 73.544C321.45 67.72 324.138 62.568 328.096 58.088C332.128 53.5333 337.018 50.024 342.768 47.56C348.592 45.0213 354.789 43.752 361.36 43.752ZM361.024 53.72C359.456 53.72 357.776 55.1387 355.984 57.976C354.266 60.7387 352.213 66.0027 349.824 73.768C347.434 81.5333 346.24 86.984 346.24 90.12C346.24 91.7627 346.501 92.8827 347.024 93.48C347.546 94.0027 348.256 94.264 349.152 94.264C350.72 94.4133 352.325 93.0693 353.968 90.232C355.685 87.3947 357.813 81.8693 360.352 73.656C362.666 66.4133 363.824 61.1493 363.824 57.864C363.824 56.296 363.562 55.2133 363.04 54.616C362.592 54.0187 361.92 53.72 361.024 53.72ZM441.58 45.208C442.998 45.208 444.081 45.5067 444.828 46.104C445.649 46.7013 446.06 47.5227 446.06 48.568C446.06 48.8667 445.985 49.3893 445.836 50.136C444.865 53.4213 442.625 55.064 439.116 55.064H432.62L424.22 82.728C423.846 83.848 423.66 85.0053 423.66 86.2C423.66 87.544 424.033 88.4773 424.78 89C425.526 89.5227 426.572 89.784 427.916 89.784C429.11 89.784 430.604 89.6347 432.396 89.336C433.292 89.112 434.076 89 434.748 89C435.27 89 435.644 89.1867 435.868 89.56C436.166 89.8587 436.316 90.2693 436.316 90.792C436.39 92.2853 435.27 94.1147 432.956 96.28C430.716 98.3707 427.654 100.2 423.772 101.768C419.889 103.261 415.596 104.008 410.892 104.008C405.814 104.008 401.745 102.851 398.684 100.536C395.622 98.2213 394.092 95.048 394.092 91.016C394.092 89.1493 394.39 87.3573 394.988 85.64L402.156 63.464C402.529 62.1947 402.716 61.1867 402.716 60.44C402.716 58.9467 402.342 57.6773 401.596 56.632C400.924 55.5867 399.953 54.504 398.684 53.384C397.564 52.3387 396.78 51.48 396.332 50.808C395.884 50.0613 395.772 49.2027 395.996 48.232C396.294 47.2613 396.929 46.5147 397.9 45.992C398.87 45.4693 400.401 45.208 402.492 45.208H408.764L415.82 38.152C418.284 35.688 420.524 33.9707 422.54 33C424.63 32.0293 427.318 31.544 430.604 31.544C435.308 31.544 437.66 33.336 437.66 36.92C437.66 38.04 437.51 39.0853 437.212 40.056L435.644 45.208H441.58ZM477.609 43.192C487.091 43.192 493.961 44.7227 498.217 47.784C502.473 50.7707 504.601 54.616 504.601 59.32C504.601 60.7387 504.451 62.0453 504.153 63.24C503.033 68.168 499.897 71.7147 494.745 73.88C489.667 75.9707 483.657 77.016 476.713 77.016C473.203 77.016 469.918 76.792 466.857 76.344C466.782 80.2267 467.827 82.952 469.993 84.52C472.158 86.088 475.182 86.872 479.065 86.872C480.857 86.872 482.574 86.6853 484.217 86.312C485.859 85.864 487.95 85.2293 490.489 84.408C492.579 83.6613 493.998 83.288 494.745 83.288C495.566 83.288 495.977 83.7733 495.977 84.744C496.051 87.3573 495.081 90.12 493.065 93.032C491.049 95.8693 488.062 98.296 484.105 100.312C480.147 102.328 475.369 103.336 469.769 103.336C461.481 103.336 454.686 101.245 449.385 97.064C444.083 92.8827 441.433 86.7973 441.433 78.808C441.433 76.568 441.731 73.9547 442.329 70.968C444.195 61.784 448.265 54.8773 454.537 50.248C460.883 45.544 468.574 43.192 477.609 43.192ZM467.641 69.624C467.939 69.6987 468.35 69.736 468.873 69.736C472.009 69.736 474.398 68.28 476.041 65.368C477.683 62.456 478.467 59.208 478.393 55.624C478.318 53.5333 477.721 52.488 476.601 52.488C475.779 52.488 474.809 53.16 473.689 54.504C472.569 55.7733 471.449 57.7147 470.329 60.328C469.283 62.9413 468.387 66.04 467.641 69.624Z" fill="white"/>
<path d="M648.56 39.16C648.56 41.848 647.925 44.2 646.656 46.216C645.387 48.1573 643.781 49.6507 641.84 50.696C639.973 51.6667 638.144 52.152 636.352 52.152C634.635 52.152 632.992 51.7413 631.424 50.92C629.931 50.024 628.96 49.016 628.512 47.896L601.296 93.368C599.205 96.8773 597.301 99.3787 595.584 100.872C593.941 102.291 592.037 103 589.872 103C584.869 103 582.032 99.7893 581.36 93.368L577.776 60.44L555.152 93.368C552.539 97.176 550.411 99.752 548.768 101.096C547.2 102.365 545.371 103 543.28 103C538.725 103 535.963 99.416 534.992 92.248L527.824 41.624C527.6 40.1307 527.152 38.936 526.48 38.04C525.883 37.144 525.099 36.2853 524.128 35.464C523.456 34.8667 522.971 34.3813 522.672 34.008C522.373 33.56 522.224 33.0747 522.224 32.552C521.851 29.7893 523.493 28.408 527.152 28.408H555.04C556.757 28.408 558.027 28.7813 558.848 29.528C559.744 30.2 560.155 31.1333 560.08 32.328C560.08 32.9253 559.893 33.5227 559.52 34.12C559.221 34.6427 558.885 35.128 558.512 35.576C557.691 36.472 557.093 37.3307 556.72 38.152C556.347 38.9733 556.235 40.056 556.384 41.4L559.296 68.392L576.096 44.312L575.76 41.624C575.611 40.2053 575.237 39.048 574.64 38.152C574.043 37.256 573.221 36.3973 572.176 35.576C571.429 34.904 570.907 34.3813 570.608 34.008C570.309 33.56 570.16 33.0747 570.16 32.552C569.787 29.7893 571.429 28.408 575.088 28.408H603.088C604.805 28.408 606.112 28.7813 607.008 29.528C607.904 30.2 608.315 31.1333 608.24 32.328C608.24 33.2987 607.717 34.3813 606.672 35.576C605.925 36.472 605.365 37.3307 604.992 38.152C604.619 38.9733 604.469 40.056 604.544 41.4L605.888 65.816L621.008 39.384C623.472 35.128 625.861 32.1787 628.176 30.536C630.491 28.8187 633.515 27.96 637.248 27.96C640.608 27.96 643.333 28.968 645.424 30.984C647.515 33 648.56 35.7253 648.56 39.16ZM679.422 43.752C689.577 43.752 697.043 45.8053 701.822 49.912C706.675 54.0187 709.102 59.3947 709.102 66.04C709.102 68.28 708.803 70.7813 708.206 73.544C706.787 79.6667 704.137 85.0427 700.254 89.672C696.371 94.2267 691.593 97.7733 685.918 100.312C680.318 102.776 674.233 104.008 667.662 104.008C657.283 104.008 649.593 101.955 644.59 97.848C639.662 93.6667 637.198 88.1413 637.198 81.272C637.198 78.9573 637.497 76.3813 638.094 73.544C639.513 67.72 642.201 62.568 646.158 58.088C650.19 53.5333 655.081 50.024 660.83 47.56C666.654 45.0213 672.851 43.752 679.422 43.752ZM679.086 53.72C677.518 53.72 675.838 55.1387 674.046 57.976C672.329 60.7387 670.275 66.0027 667.886 73.768C665.497 81.5333 664.302 86.984 664.302 90.12C664.302 91.7627 664.563 92.8827 665.086 93.48C665.609 94.0027 666.318 94.264 667.214 94.264C668.782 94.4133 670.387 93.0693 672.03 90.232C673.747 87.3947 675.875 81.8693 678.414 73.656C680.729 66.4133 681.886 61.1493 681.886 57.864C681.886 56.296 681.625 55.2133 681.102 54.616C680.654 54.0187 679.982 53.72 679.086 53.72ZM764.57 43.752C768.751 43.752 772.074 45.0213 774.538 47.56C777.077 50.0987 778.346 53.2347 778.346 56.968C778.346 58.3867 778.197 59.6933 777.898 60.888C777.151 63.9493 775.733 66.3013 773.642 67.944C771.551 69.5867 769.05 70.408 766.138 70.408C763.301 70.408 761.135 69.736 759.642 68.392C758.223 67.048 756.954 65.256 755.834 63.016C755.237 61.7467 754.677 60.8133 754.154 60.216C753.631 59.6187 753.034 59.32 752.362 59.32C751.615 59.32 750.943 59.6187 750.346 60.216C749.823 60.8133 749.338 61.8587 748.89 63.352L740.266 91.352C740.117 91.7253 740.042 92.2853 740.042 93.032C740.042 94.0027 740.303 94.824 740.826 95.496C741.423 96.0933 742.207 96.6907 743.178 97.288C744.074 97.8853 744.671 98.3707 744.97 98.744C745.269 99.1173 745.381 99.6027 745.306 100.2C745.157 101.171 744.597 101.88 743.626 102.328C742.73 102.776 741.162 103 738.922 103H710.25C708.309 103 706.927 102.701 706.106 102.104C705.21 101.432 704.874 100.573 705.098 99.528C705.397 98.632 706.181 97.848 707.45 97.176C708.57 96.5787 709.503 95.8693 710.25 95.048C710.997 94.2267 711.631 92.92 712.154 91.128L722.122 58.76C722.271 58.3867 722.346 57.864 722.346 57.192C722.346 56.3707 722.159 55.736 721.786 55.288C721.487 54.84 720.965 54.28 720.218 53.608C719.471 53.0107 718.949 52.488 718.65 52.04C718.351 51.592 718.314 50.9947 718.538 50.248C718.986 48.5307 721.338 47.0373 725.594 45.768C729.85 44.424 734.293 43.752 738.922 43.752C741.983 43.752 744.522 44.4613 746.538 45.88C748.554 47.224 749.861 49.1653 750.458 51.704C754.042 46.4027 758.746 43.752 764.57 43.752ZM839.76 43.752C844.016 43.752 847.413 44.9467 849.952 47.336C852.565 49.6507 853.872 52.488 853.872 55.848C853.872 59.432 852.789 62.232 850.624 64.248C848.458 66.264 845.621 67.272 842.112 67.272C838.976 67.272 836.549 66.488 834.832 64.92C833.114 63.2773 832.293 61.448 832.368 59.432C831.621 59.2827 830.986 59.5813 830.464 60.328C829.941 61.0747 829.381 62.5307 828.784 64.696C828.41 66.1147 827.701 67.4213 826.656 68.616C831.733 68.9893 835.504 70.1467 837.968 72.088C840.432 74.0293 841.664 76.5307 841.664 79.592C841.664 81.0853 841.402 82.5787 840.88 84.072L839.984 87.544C839.834 87.9173 839.76 88.4027 839.76 89C839.76 90.0453 840.245 90.568 841.216 90.568C842.112 90.568 842.858 90.1947 843.456 89.448C844.128 88.6267 844.576 88.216 844.8 88.216C845.173 88.216 845.472 88.4773 845.696 89C845.92 89.448 846.032 90.008 846.032 90.68C846.106 92.8453 845.434 94.9733 844.016 97.064C842.672 99.08 840.581 100.76 837.744 102.104C834.981 103.373 831.621 104.008 827.664 104.008C822.885 104.008 818.89 102.813 815.68 100.424C812.544 98.0347 810.976 94.8987 810.976 91.016C810.976 89.5973 811.274 87.992 811.872 86.2L814 80.6C814.373 79.256 814.56 78.2853 814.56 77.688C814.56 76.7173 814.224 76.008 813.552 75.56C812.954 75.112 811.984 74.888 810.64 74.888H808.4L803.36 91.352C803.136 92.248 803.024 93.032 803.024 93.704C803.024 94.6747 803.21 95.4587 803.584 96.056C803.957 96.5787 804.48 97.1013 805.152 97.624C805.674 98.1467 806.048 98.5947 806.272 98.968C806.496 99.2667 806.533 99.6773 806.384 100.2C806.01 101.171 805.264 101.88 804.144 102.328C803.024 102.776 801.306 103 798.992 103H773.456C771.514 103 770.096 102.701 769.2 102.104C768.304 101.432 768.005 100.573 768.304 99.528C768.602 98.632 769.386 97.848 770.656 97.176C771.776 96.5787 772.709 95.8693 773.456 95.048C774.202 94.2267 774.837 92.92 775.36 91.128L792.384 35.24C792.608 34.568 792.72 34.008 792.72 33.56C792.72 32.7387 792.496 32.0667 792.048 31.544C791.674 31.0213 791.152 30.4987 790.48 29.976C789.733 29.3787 789.173 28.856 788.8 28.408C788.501 27.96 788.464 27.3627 788.688 26.616C789.136 24.8987 791.488 23.4053 795.744 22.136C800 20.8667 804.442 20.232 809.072 20.232C813.402 20.232 816.576 21.0533 818.592 22.696C820.608 24.264 821.616 26.4667 821.616 29.304C821.616 31.0213 821.354 32.664 820.832 34.232L811.088 66.04H814.784C816.277 66.04 817.472 65.592 818.368 64.696C819.338 63.8 820.085 62.4933 820.608 60.776C822.474 55.2507 824.901 51.032 827.888 48.12C830.874 45.208 834.832 43.752 839.76 43.752Z" fill="white"/>
<path d="M89.136 155.408C91.8987 155.408 94.0267 156.005 95.52 157.2C97.088 158.395 97.872 160.037 97.872 162.128C97.872 163.173 97.7227 164.181 97.424 165.152L94.512 175.568C93.9893 177.584 93.2053 179.003 92.16 179.824C91.1893 180.571 89.7707 180.944 87.904 180.944C86.112 180.944 84.6933 180.571 83.648 179.824C82.6773 179.003 81.9307 177.696 81.408 175.904L79.616 169.52C79.2427 168.176 78.7947 167.28 78.272 166.832C77.7493 166.384 76.7413 166.16 75.248 166.16H63.488L57.888 186.096H62.816C63.3387 186.096 64.048 185.723 64.944 184.976L68.752 181.616C69.872 180.645 70.8427 179.936 71.664 179.488C72.4853 179.04 73.4933 178.816 74.688 178.816C76.032 178.816 77.1147 179.189 77.936 179.936C78.832 180.608 79.28 181.504 79.28 182.624C79.28 182.923 79.2053 183.371 79.056 183.968L74.464 199.536C74.016 201.179 73.232 202.411 72.112 203.232C71.0667 203.979 69.9093 204.352 68.64 204.352C66.5493 204.352 64.9813 203.269 63.936 201.104L62.032 197.184C61.5093 196.064 60.688 195.504 59.568 195.504H55.2L48.592 219.248H58.448C59.8667 219.248 61.0987 218.987 62.144 218.464C63.264 217.867 64.4587 216.859 65.728 215.44L72.448 208.048C73.6427 206.779 74.7627 205.883 75.808 205.36C76.928 204.763 78.272 204.464 79.84 204.464C81.4827 204.464 82.8267 204.837 83.872 205.584C84.9173 206.331 85.44 207.451 85.44 208.944C85.44 209.541 85.328 210.251 85.104 211.072L81.856 222.384C81.0347 225.221 79.84 227.2 78.272 228.32C76.704 229.44 74.4267 230 71.44 230H18.016C16.448 230 15.2533 229.739 14.432 229.216C13.536 228.693 13.088 227.984 13.088 227.088C13.088 226.64 13.2 226.155 13.424 225.632C13.7227 224.811 14.208 224.176 14.88 223.728C15.552 223.28 15.9627 223.019 16.112 222.944C17.3067 222.197 18.2773 221.451 19.024 220.704C19.7707 219.883 20.4053 218.576 20.928 216.784L34.704 168.512C35.0027 167.541 35.152 166.645 35.152 165.824C35.152 164.928 35.0027 164.181 34.704 163.584C34.48 162.987 34.1067 162.352 33.584 161.68C32.912 160.709 32.576 159.925 32.576 159.328C32.576 159.104 32.6507 158.693 32.8 158.096C33.0987 157.125 33.7707 156.453 34.816 156.08C35.8613 155.632 37.392 155.408 39.408 155.408H89.136ZM160.469 214.544C160.319 214.843 160.245 215.291 160.245 215.888C160.245 216.411 160.357 216.821 160.581 217.12C160.879 217.419 161.253 217.568 161.701 217.568C162.597 217.568 163.343 217.195 163.941 216.448C164.613 215.627 165.061 215.216 165.285 215.216C165.658 215.216 165.957 215.477 166.181 216C166.405 216.448 166.517 217.008 166.517 217.68C166.591 219.845 165.882 221.973 164.389 224.064C162.895 226.08 160.693 227.76 157.781 229.104C154.943 230.373 151.509 231.008 147.477 231.008C142.549 231.008 138.629 229.888 135.717 227.648C132.805 225.333 131.311 222.272 131.237 218.464C131.237 215.701 131.909 212.603 133.253 209.168L139.413 193.04C139.786 192.069 139.973 191.285 139.973 190.688C139.973 189.717 139.637 188.971 138.965 188.448C138.367 187.851 137.621 187.552 136.725 187.552C135.082 187.552 133.514 188.336 132.021 189.904C130.527 191.397 129.445 193.264 128.773 195.504L121.829 218.352C121.53 219.173 121.381 219.957 121.381 220.704C121.381 221.6 121.567 222.347 121.941 222.944C122.314 223.467 122.837 224.027 123.509 224.624C124.031 225.072 124.405 225.483 124.629 225.856C124.853 226.229 124.89 226.677 124.741 227.2C124.442 228.171 123.733 228.88 122.613 229.328C121.493 229.776 119.738 230 117.349 230H91.8126C89.8713 230 88.49 229.701 87.6686 229.104C86.7726 228.432 86.4366 227.573 86.6606 226.528C86.9593 225.632 87.7433 224.848 89.0126 224.176C90.1326 223.579 91.066 222.869 91.8126 222.048C92.5593 221.227 93.194 219.92 93.7166 218.128L103.685 185.76C103.834 185.387 103.909 184.864 103.909 184.192C103.909 183.371 103.722 182.736 103.349 182.288C103.05 181.84 102.527 181.28 101.781 180.608C101.034 180.011 100.511 179.488 100.213 179.04C99.914 178.592 99.8766 177.995 100.101 177.248C100.549 175.531 102.901 174.037 107.157 172.768C111.413 171.424 115.855 170.752 120.485 170.752C124.218 170.752 127.167 171.797 129.333 173.888C131.498 175.904 132.469 178.741 132.245 182.4C135.306 177.995 138.554 174.971 141.989 173.328C145.423 171.611 149.157 170.752 153.189 170.752C157.743 170.752 161.402 172.133 164.165 174.896C167.002 177.659 168.421 181.243 168.421 185.648C168.421 187.963 168.047 190.24 167.301 192.48L160.469 214.544ZM211.969 170.192C216.523 170.192 220.518 170.864 223.953 172.208C227.387 173.477 230.038 175.269 231.905 177.584C233.846 179.824 234.817 182.325 234.817 185.088C234.817 188.075 233.771 190.539 231.681 192.48C229.665 194.421 226.902 195.392 223.393 195.392C219.809 195.392 217.009 194.496 214.993 192.704C212.977 190.837 211.969 188.336 211.969 185.2C211.969 183.707 212.193 182.139 212.641 180.496C209.505 181.317 206.705 182.96 204.24 185.424C201.851 187.813 200.246 190.987 199.425 194.944C198.977 197.184 198.753 199.2 198.753 200.992C198.753 205.024 199.873 208.085 202.113 210.176C204.353 212.267 207.563 213.312 211.745 213.312C214.134 213.312 216.187 213.088 217.905 212.64C219.622 212.117 221.377 211.445 223.169 210.624C224.662 209.877 225.745 209.504 226.417 209.504C226.865 209.504 227.163 209.616 227.312 209.84C227.462 209.989 227.537 210.363 227.537 210.96C227.611 213.723 226.454 216.635 224.065 219.696C221.75 222.683 218.502 225.221 214.321 227.312C210.214 229.328 205.585 230.336 200.433 230.336C195.057 230.336 190.278 229.365 186.096 227.424C181.99 225.408 178.779 222.571 176.465 218.912C174.225 215.179 173.105 210.848 173.105 205.92C173.105 203.605 173.403 201.029 174.001 198.192C176.017 188.933 180.459 181.952 187.329 177.248C194.273 172.544 202.486 170.192 211.969 170.192ZM294.766 170.752C298.052 170.752 300.665 172.096 302.606 174.784C304.622 177.397 305.63 180.981 305.63 185.536C305.63 189.493 304.921 193.749 303.502 198.304C300.74 207.488 296.297 216.149 290.174 224.288C284.126 232.427 277.145 238.96 269.23 243.888C261.39 248.816 253.55 251.28 245.71 251.28C241.828 251.28 238.468 250.608 235.63 249.264C232.868 247.92 230.777 246.128 229.358 243.888C227.865 241.648 227.118 239.259 227.118 236.72C227.118 235.6 227.305 234.368 227.678 233.024C228.35 230.933 229.47 229.328 231.038 228.208C232.606 227.088 234.473 226.528 236.638 226.528C240.073 226.528 242.873 227.685 245.038 230C247.278 232.389 248.697 235.637 249.294 239.744C254.073 239.52 258.478 237.467 262.51 233.584C258.702 232.912 255.865 231.643 253.998 229.776C252.206 227.835 250.974 224.848 250.302 220.816L245.822 193.376C245.598 191.957 245.262 190.987 244.814 190.464C244.441 189.867 243.918 189.568 243.246 189.568C242.724 189.568 242.089 189.829 241.342 190.352C240.67 190.875 240.185 191.136 239.886 191.136C239.289 191.136 238.99 190.501 238.99 189.232C238.99 188.187 239.177 187.067 239.55 185.872C240.894 181.616 243.396 178.032 247.054 175.12C250.713 172.133 254.969 170.64 259.822 170.64C264.601 170.64 268.11 172.059 270.35 174.896C272.665 177.733 274.158 182.101 274.83 188L278.19 212.64C278.414 214.507 279.086 215.44 280.206 215.44C281.55 215.44 283.118 214.245 284.91 211.856C286.702 209.392 288.457 205.92 290.174 201.44C287.934 199.424 286.217 197.109 285.022 194.496C283.828 191.883 283.23 189.083 283.23 186.096C283.23 183.781 283.529 181.691 284.126 179.824C285.022 176.837 286.404 174.597 288.27 173.104C290.212 171.536 292.377 170.752 294.766 170.752ZM345.515 170.192C350.07 170.192 354.065 170.864 357.499 172.208C360.934 173.477 363.585 175.269 365.451 177.584C367.393 179.824 368.363 182.325 368.363 185.088C368.363 188.075 367.318 190.539 365.227 192.48C363.211 194.421 360.449 195.392 356.939 195.392C353.355 195.392 350.555 194.496 348.539 192.704C346.523 190.837 345.515 188.336 345.515 185.2C345.515 183.707 345.739 182.139 346.187 180.496C343.051 181.317 340.251 182.96 337.787 185.424C335.398 187.813 333.793 190.987 332.971 194.944C332.523 197.184 332.299 199.2 332.299 200.992C332.299 205.024 333.419 208.085 335.659 210.176C337.899 212.267 341.11 213.312 345.291 213.312C347.681 213.312 349.734 213.088 351.451 212.64C353.169 212.117 354.923 211.445 356.715 210.624C358.209 209.877 359.291 209.504 359.963 209.504C360.411 209.504 360.71 209.616 360.859 209.84C361.009 209.989 361.083 210.363 361.083 210.96C361.158 213.723 360.001 216.635 357.611 219.696C355.297 222.683 352.049 225.221 347.867 227.312C343.761 229.328 339.131 230.336 333.979 230.336C328.603 230.336 323.825 229.365 319.643 227.424C315.537 225.408 312.326 222.571 310.011 218.912C307.771 215.179 306.651 210.848 306.651 205.92C306.651 203.605 306.95 201.029 307.547 198.192C309.563 188.933 314.006 181.952 320.875 177.248C327.819 172.544 336.033 170.192 345.515 170.192ZM401.291 147.232C405.621 147.232 408.795 148.053 410.811 149.696C412.901 151.339 413.947 153.579 413.947 156.416C413.947 158.059 413.685 159.664 413.163 161.232L395.579 218.352C395.355 219.248 395.243 220.032 395.243 220.704C395.243 221.675 395.429 222.459 395.803 223.056C396.176 223.579 396.699 224.101 397.371 224.624C397.893 225.147 398.267 225.595 398.49 225.968C398.715 226.267 398.752 226.677 398.603 227.2C398.229 228.171 397.483 228.88 396.363 229.328C395.243 229.776 393.525 230 391.211 230H365.675C363.733 230 362.314 229.701 361.418 229.104C360.522 228.432 360.224 227.573 360.522 226.528C360.821 225.632 361.605 224.848 362.874 224.176C363.994 223.579 364.928 222.869 365.675 222.048C366.421 221.227 367.056 219.92 367.579 218.128L384.603 162.24C384.827 161.568 384.939 161.008 384.939 160.56C384.939 159.739 384.715 159.067 384.267 158.544C383.893 158.021 383.371 157.499 382.699 156.976C381.952 156.379 381.392 155.856 381.019 155.408C380.72 154.96 380.683 154.363 380.907 153.616C381.355 151.899 383.707 150.405 387.963 149.136C392.219 147.867 396.661 147.232 401.291 147.232ZM449.922 170.752C460.077 170.752 467.543 172.805 472.322 176.912C477.175 181.019 479.602 186.395 479.602 193.04C479.602 195.28 479.303 197.781 478.706 200.544C477.287 206.667 474.637 212.043 470.754 216.672C466.871 221.227 462.093 224.773 456.418 227.312C450.818 229.776 444.733 231.008 438.162 231.008C427.783 231.008 420.093 228.955 415.09 224.848C410.162 220.667 407.698 215.141 407.698 208.272C407.698 205.957 407.997 203.381 408.594 200.544C410.013 194.72 412.701 189.568 416.658 185.088C420.69 180.533 425.581 177.024 431.33 174.56C437.154 172.021 443.351 170.752 449.922 170.752ZM449.586 180.72C448.018 180.72 446.338 182.139 444.546 184.976C442.829 187.739 440.775 193.003 438.386 200.768C435.997 208.533 434.802 213.984 434.802 217.12C434.802 218.763 435.063 219.883 435.586 220.48C436.109 221.003 436.818 221.264 437.714 221.264C439.282 221.413 440.887 220.069 442.53 217.232C444.247 214.395 446.375 208.869 448.914 200.656C451.229 193.413 452.386 188.149 452.386 184.864C452.386 183.296 452.125 182.213 451.602 181.616C451.154 181.019 450.482 180.72 449.586 180.72ZM536.467 170.304C542.216 170.304 546.733 172.208 550.019 176.016C553.304 179.824 554.947 185.013 554.947 191.584C554.947 195.093 554.461 198.789 553.491 202.672C551.251 211.931 547.069 218.987 540.947 223.84C534.824 228.619 527.731 231.008 519.667 231.008C514.515 231.008 510.035 229.925 506.227 227.76L502.643 239.744C502.344 240.565 502.195 241.349 502.195 242.096C502.195 242.917 502.381 243.589 502.755 244.112C503.128 244.709 503.613 245.269 504.211 245.792C504.808 246.389 505.181 246.875 505.331 247.248C505.555 247.621 505.592 248.069 505.443 248.592C505.144 249.563 504.435 250.235 503.315 250.608C502.195 251.056 500.477 251.28 498.163 251.28H472.515C470.573 251.28 469.192 250.944 468.371 250.272C467.475 249.675 467.213 248.891 467.587 247.92C467.736 247.323 467.997 246.837 468.371 246.464C468.744 246.091 469.267 245.755 469.939 245.456C471.059 244.709 471.955 243.925 472.627 243.104C473.299 242.357 473.896 241.125 474.419 239.408L490.771 185.76C490.995 185.088 491.107 184.528 491.107 184.08C491.107 183.259 490.92 182.624 490.547 182.176C490.173 181.653 489.613 181.131 488.867 180.608C488.12 180.011 487.597 179.488 487.299 179.04C487 178.592 486.963 177.995 487.187 177.248C487.635 175.531 489.987 174.037 494.243 172.768C498.499 171.424 502.941 170.752 507.571 170.752C510.856 170.752 513.544 171.573 515.635 173.216C517.8 174.859 519.032 177.136 519.331 180.048C524.408 173.552 530.12 170.304 536.467 170.304ZM523.475 203.568C525.267 196.923 526.163 192.331 526.163 189.792C526.163 188.224 525.901 187.216 525.379 186.768C524.931 186.245 524.259 185.984 523.363 185.984C522.691 185.984 521.832 186.32 520.787 186.992C519.741 187.589 518.696 188.635 517.651 190.128L508.803 219.472C509.699 220.368 510.781 220.816 512.051 220.816C514.067 220.816 515.971 219.696 517.763 217.456C519.629 215.141 521.533 210.512 523.475 203.568ZM593.296 170.192C602.779 170.192 609.648 171.723 613.904 174.784C618.16 177.771 620.288 181.616 620.288 186.32C620.288 187.739 620.139 189.045 619.84 190.24C618.72 195.168 615.584 198.715 610.432 200.88C605.355 202.971 599.344 204.016 592.4 204.016C588.891 204.016 585.605 203.792 582.544 203.344C582.469 207.227 583.515 209.952 585.68 211.52C587.845 213.088 590.869 213.872 594.752 213.872C596.544 213.872 598.261 213.685 599.904 213.312C601.547 212.864 603.637 212.229 606.176 211.408C608.267 210.661 609.685 210.288 610.432 210.288C611.253 210.288 611.664 210.773 611.664 211.744C611.739 214.357 610.768 217.12 608.752 220.032C606.736 222.869 603.749 225.296 599.792 227.312C595.835 229.328 591.056 230.336 585.456 230.336C577.168 230.336 570.373 228.245 565.072 224.064C559.771 219.883 557.12 213.797 557.12 205.808C557.12 203.568 557.419 200.955 558.016 197.968C559.883 188.784 563.952 181.877 570.224 177.248C576.571 172.544 584.261 170.192 593.296 170.192ZM583.328 196.624C583.627 196.699 584.037 196.736 584.56 196.736C587.696 196.736 590.085 195.28 591.728 192.368C593.371 189.456 594.155 186.208 594.08 182.624C594.005 180.533 593.408 179.488 592.288 179.488C591.467 179.488 590.496 180.16 589.376 181.504C588.256 182.773 587.136 184.715 586.016 187.328C584.971 189.941 584.075 193.04 583.328 196.624ZM680.608 213.872C680.459 214.469 680.384 214.88 680.384 215.104C680.384 215.627 680.533 216.037 680.832 216.336C681.131 216.635 681.504 216.784 681.952 216.784C682.848 216.784 683.595 216.411 684.192 215.664C684.864 214.843 685.312 214.432 685.536 214.432C685.909 214.432 686.208 214.693 686.432 215.216C686.656 215.739 686.768 216.336 686.768 217.008C686.843 219.024 686.059 221.077 684.416 223.168C682.848 225.259 680.72 226.976 678.032 228.32C675.344 229.664 672.432 230.336 669.296 230.336C665.563 230.336 662.315 229.627 659.552 228.208C656.789 226.789 654.885 224.923 653.84 222.608C651.824 225.221 649.509 227.163 646.896 228.432C644.283 229.701 641.52 230.336 638.608 230.336C635.173 230.336 631.963 229.477 628.976 227.76C626.064 226.043 623.712 223.616 621.92 220.48C620.203 217.269 619.344 213.648 619.344 209.616C619.344 202.821 620.613 196.437 623.152 190.464C625.765 184.416 629.387 179.563 634.016 175.904C638.645 172.171 643.909 170.304 649.808 170.304C653.019 170.304 655.744 170.677 657.984 171.424C660.299 172.171 662.389 173.291 664.256 174.784L668.064 162.24C668.288 161.568 668.4 161.008 668.4 160.56C668.4 159.739 668.176 159.067 667.728 158.544C667.355 158.021 666.832 157.499 666.16 156.976C665.413 156.379 664.853 155.856 664.48 155.408C664.181 154.96 664.144 154.363 664.368 153.616C664.816 151.899 667.168 150.405 671.424 149.136C675.68 147.867 680.123 147.232 684.752 147.232C689.083 147.232 692.256 148.053 694.272 149.696C696.363 151.339 697.408 153.579 697.408 156.416C697.408 158.059 697.147 159.664 696.624 161.232L680.608 213.872ZM661.904 182.4C660.709 181.355 659.403 180.832 657.984 180.832C655.819 180.832 653.691 182.437 651.6 185.648C649.509 188.859 647.829 192.741 646.56 197.296C645.291 201.851 644.693 205.957 644.768 209.616C644.768 213.723 646.112 215.776 648.8 215.776C649.771 215.776 650.592 215.403 651.264 214.656C651.936 213.835 652.571 212.528 653.168 210.736L661.904 182.4ZM720.847 170.752C725.177 170.752 728.351 171.573 730.367 173.216C732.383 174.859 733.391 177.099 733.391 179.936C733.391 181.653 733.129 183.296 732.607 184.864L722.303 218.352C722.079 219.248 721.967 220.032 721.967 220.704C721.967 221.675 722.153 222.459 722.527 223.056C722.9 223.579 723.423 224.101 724.095 224.624C724.617 225.147 724.991 225.595 725.215 225.968C725.439 226.267 725.476 226.677 725.327 227.2C724.953 228.171 724.207 228.88 723.087 229.328C721.967 229.776 720.249 230 717.935 230H692.399C690.457 230 689.039 229.701 688.143 229.104C687.247 228.432 686.948 227.573 687.247 226.528C687.545 225.632 688.329 224.848 689.599 224.176C690.719 223.579 691.652 222.869 692.399 222.048C693.145 221.227 693.78 219.92 694.303 218.128L704.047 185.76C704.271 185.088 704.383 184.528 704.383 184.08C704.383 183.259 704.196 182.624 703.823 182.176C703.449 181.653 702.889 181.131 702.143 180.608C701.396 180.011 700.873 179.488 700.575 179.04C700.276 178.592 700.239 177.995 700.463 177.248C700.911 175.531 703.263 174.037 707.519 172.768C711.775 171.424 716.217 170.752 720.847 170.752ZM728.351 146C731.263 146 733.689 146.971 735.631 148.912C737.572 150.779 738.543 153.093 738.543 155.856C738.543 157.797 738.02 159.701 736.975 161.568C736.004 163.435 734.585 164.965 732.719 166.16C730.927 167.28 728.911 167.84 726.671 167.84C723.833 167.84 721.444 166.907 719.503 165.04C717.636 163.099 716.665 160.709 716.591 157.872C716.591 156.005 717.076 154.176 718.047 152.384C719.017 150.517 720.399 148.987 722.191 147.792C723.983 146.597 726.036 146 728.351 146ZM772.39 170.752C780.977 170.752 787.846 172.357 792.998 175.568C798.15 178.704 800.726 183.52 800.726 190.016C800.726 192.48 800.278 195.28 799.382 198.416L794.79 213.872C794.716 214.171 794.678 214.544 794.678 214.992C794.678 216.187 795.164 216.784 796.134 216.784C797.03 216.784 797.777 216.411 798.374 215.664C799.046 214.843 799.494 214.432 799.718 214.432C800.092 214.432 800.39 214.693 800.614 215.216C800.913 215.739 801.062 216.336 801.062 217.008C801.137 219.024 800.353 221.077 798.71 223.168C797.142 225.259 795.014 226.976 792.326 228.32C789.638 229.664 786.689 230.336 783.478 230.336C779.596 230.336 776.273 229.627 773.51 228.208C770.748 226.789 768.844 224.699 767.798 221.936C765.558 224.624 762.908 226.715 759.846 228.208C756.785 229.627 753.5 230.336 749.99 230.336C746.033 230.336 742.71 229.589 740.022 228.096C737.334 226.528 735.318 224.549 733.974 222.16C732.705 219.696 732.07 217.12 732.07 214.432C732.07 213.237 732.182 212.08 732.406 210.96C733.601 205.808 736.177 201.925 740.134 199.312C744.166 196.699 748.945 195.392 754.47 195.392C760.668 195.392 766.753 196.363 772.726 198.304L775.526 190.912C776.497 187.776 776.982 185.349 776.982 183.632C776.908 181.84 776.31 180.496 775.19 179.6C774.07 178.704 772.353 178.256 770.038 178.256C770.486 179.451 770.71 180.683 770.71 181.952C770.71 184.715 769.665 187.104 767.574 189.12C765.484 191.136 762.497 192.144 758.614 192.144C754.956 192.144 752.081 191.36 749.99 189.792C747.974 188.149 746.966 186.133 746.966 183.744C746.966 180.011 749.057 176.912 753.238 174.448C757.42 171.984 763.804 170.752 772.39 170.752ZM766.118 204.688C764.028 204.688 762.31 205.509 760.966 207.152C759.697 208.72 759.062 210.437 759.062 212.304C759.062 213.499 759.324 214.469 759.846 215.216C760.444 215.963 761.265 216.336 762.31 216.336C763.281 216.336 764.326 215.963 765.446 215.216C766.641 214.395 767.5 213.2 768.022 211.632L770.374 205.024C769.105 204.8 767.686 204.688 766.118 204.688Z" fill="url(#paint1_linear)"/>
</g>
<defs>
<filter id="filter0_dd" x="-30.4422" y="-26" width="967.884" height="191" filterUnits="userSpaceOnUse" color-interpolation-filters="sRGB">
<feFlood flood-opacity="0" result="BackgroundImageFix"/>
<feColorMatrix in="SourceAlpha" type="matrix" values="0 0 0 0 0 0 0 0 0 0 0 0 0 0 0 0 0 0 127 0"/>
<feOffset dy="2"/>
<feGaussianBlur stdDeviation="16"/>
<feColorMatrix type="matrix" values="0 0 0 0 0 0 0 0 0 0 0 0 0 0 0 0 0 0 0.06 0"/>
<feBlend mode="normal" in2="BackgroundImageFix" result="effect1_dropShadow"/>
<feColorMatrix in="SourceAlpha" type="matrix" values="0 0 0 0 0 0 0 0 0 0 0 0 0 0 0 0 0 0 127 0"/>
<feOffset dy="4"/>
<feGaussianBlur stdDeviation="4"/>
<feColorMatrix type="matrix" values="0 0 0 0 0 0 0 0 0 0 0 0 0 0 0 0 0 0 0.08 0"/>
<feBlend mode="normal" in2="effect1_dropShadow" result="effect2_dropShadow"/>
<feBlend mode="normal" in="SourceGraphic" in2="effect2_dropShadow" result="shape"/>
</filter>
<linearGradient id="paint0_linear" x1="829" y1="313.5" x2="185.5" y2="-235" gradientUnits="userSpaceOnUse">
<stop stop-color="#2B3FF4"/>
<stop offset="1" stop-color="#0A68FF"/>
</linearGradient>
<linearGradient id="paint1_linear" x1="411" y1="115" x2="411" y2="278" gradientUnits="userSpaceOnUse">
<stop stop-color="#0D2243"/>
<stop offset="1" stop-color="#080E35"/>
</linearGradient>
<clipPath id="clip0">
<rect width="907" height="254" fill="white"/>
</clipPath>
</defs>
</svg>
